<svg id="Layer_1" data-name="Layer 1" xmlns="http://www.w3.org/2000/svg" viewBox="0 0 720 720"><defs><style>.cls-1{fill:#ffcd31;}.cls-2{fill:#f68d3d;}</style></defs><title>pizzagraphics</title><rect class="cls-1" x="255.94" y="205.53" width="13.83" height="86.17" transform="translate(69.41 -57.13) rotate(14.27)"/><rect class="cls-1" x="295.3" y="253.4" width="13.83" height="86.17" transform="translate(82.43 -65.36) rotate(14.27)"/><rect class="cls-1" x="202.74" y="366.17" width="13.83" height="86.17" transform="translate(107.37 -39.06) rotate(14.27)"/><rect class="cls-1" x="255.94" y="379.7" width="13.83" height="86.17" transform="translate(112.35 -51.75) rotate(14.27)"/><rect class="cls-1" x="286.58" y="440.34" width="13.83" height="86.17" transform="translate(128.25 -57.44) rotate(14.27)"/><rect class="cls-1" x="192.96" y="483.8" width="13.83" height="86.17" transform="translate(136.07 -33.01) rotate(14.27)"/><rect class="cls-1" x="238.61" y="513.59" width="13.83" height="86.17" transform="translate(144.82 -43.35) rotate(14.27)"/><rect class="cls-1" x="129.79" y="400.45" width="13.83" height="86.17" transform="translate(113.57 -20.01) rotate(14.27)"/><rect class="cls-1" x="175.64" y="261.35" width="13.83" height="86.17" transform="translate(80.69 -35.61) rotate(14.27)"/><rect class="cls-1" x="202.74" y="150.03" width="13.83" height="86.17" transform="translate(54.08 -45.73) rotate(14.27)"/><rect class="cls-1" x="129.79" y="233.38" width="13.83" height="86.17" transform="translate(72.38 -25.17) rotate(14.27)"/><rect class="cls-1" x="507" y="200.21" width="13.83" height="86.17" transform="translate(75.85 -119.19) rotate(14.27)"/><rect class="cls-1" x="546.36" y="248.09" width="13.83" height="86.17" transform="translate(88.87 -127.42) rotate(14.27)"/><rect class="cls-1" x="453.81" y="360.85" width="13.83" height="86.17" transform="translate(113.81 -101.12) rotate(14.27)"/><rect class="cls-1" x="507" y="374.38" width="13.83" height="86.17" transform="translate(118.79 -113.82) rotate(14.27)"/><rect class="cls-1" x="537.64" y="435.02" width="13.83" height="86.17" transform="translate(134.69 -119.5) rotate(14.27)"/><rect class="cls-1" x="444.02" y="478.48" width="13.83" height="86.17" transform="translate(142.51 -95.08) rotate(14.27)"/><rect class="cls-1" x="489.68" y="508.27" width="13.83" height="86.17" transform="translate(151.26 -105.41) rotate(14.27)"/><rect class="cls-1" x="380.86" y="395.14" width="13.83" height="86.17" transform="translate(120.01 -82.08) rotate(14.27)"/><rect class="cls-1" x="426.7" y="256.03" width="13.83" height="86.17" transform="translate(87.13 -97.67) rotate(14.27)"/><rect class="cls-1" x="453.81" y="144.71" width="13.83" height="86.17" transform="translate(60.52 -107.79) rotate(14.27)"/><rect class="cls-1" x="380.86" y="228.06" width="13.83" height="86.17" transform="translate(78.82 -87.23) rotate(14.27)"/><rect class="cls-1" x="343.43" y="92.52" width="13.83" height="86.17" transform="matrix(0.86, -0.51, 0.51, 0.86, -20.1, 198.04)"/><rect class="cls-1" x="405.11" y="98.53" width="13.83" height="86.17" transform="matrix(0.86, -0.51, 0.51, 0.86, -14.52, 230.4)"/><rect class="cls-1" x="419.41" y="243.72" width="13.83" height="86.17" transform="matrix(0.86, -0.51, 0.51, 0.86, -86.69, 258.09)"/><rect class="cls-1" x="466.59" y="215.67" width="13.83" height="86.17" transform="translate(-65.74 278.26) rotate(-30.73)"/><rect class="cls-1" x="531.13" y="236.89" width="13.83" height="86.17" transform="matrix(0.86, -0.51, 0.51, 0.86, -67.52, 314.21)"/><rect class="cls-1" x="495.66" y="333.81" width="13.83" height="86.17" transform="matrix(0.86, -0.51, 0.51, 0.86, -122.02, 309.7)"/><rect class="cls-1" x="549.01" y="322.59" width="13.83" height="86.17" transform="matrix(0.86, -0.51, 0.51, 0.86, -108.8, 335.38)"/><rect class="cls-1" x="392.06" y="319.54" width="13.83" height="86.17" transform="matrix(0.86, -0.51, 0.51, 0.86, -129.27, 254.76)"/><rect class="cls-1" x="326.12" y="188.76" width="13.83" height="86.17" transform="translate(-71.71 202.71) rotate(-30.73)"/><rect class="cls-1" x="266.57" y="90.88" width="13.83" height="86.17" transform="translate(-30.06 158.54) rotate(-30.73)"/><rect class="cls-1" x="273.92" y="201.4" width="13.83" height="86.17" transform="translate(-85.49 177.81) rotate(-30.73)"/><rect class="cls-1" x="191.56" y="204.43" width="13.83" height="86.17" transform="matrix(0.86, -0.51, 0.51, 0.86, -98.6, 136.16)"/><rect class="cls-1" x="253.25" y="210.45" width="13.83" height="86.17" transform="matrix(0.86, -0.51, 0.51, 0.86, -93.02, 168.52)"/><rect class="cls-1" x="267.54" y="355.63" width="13.83" height="86.17" transform="matrix(0.86, -0.51, 0.51, 0.86, -165.19, 196.2)"/><rect class="cls-1" x="314.72" y="327.59" width="13.83" height="86.17" transform="translate(-144.24 216.37) rotate(-30.73)"/><rect class="cls-1" x="379.26" y="348.8" width="13.83" height="86.17" transform="matrix(0.86, -0.51, 0.51, 0.86, -146.02, 252.33)"/><rect class="cls-1" x="343.8" y="445.73" width="13.83" height="86.17" transform="matrix(0.86, -0.51, 0.51, 0.86, -200.52, 247.82)"/><rect class="cls-1" x="397.14" y="434.51" width="13.83" height="86.17" transform="matrix(0.86, -0.51, 0.51, 0.86, -187.3, 273.5)"/><rect class="cls-1" x="240.2" y="431.46" width="13.83" height="86.17" transform="matrix(0.86, -0.51, 0.51, 0.86, -207.78, 192.88)"/><rect class="cls-1" x="174.25" y="300.68" width="13.83" height="86.17" transform="translate(-150.21 140.82) rotate(-30.73)"/><rect class="cls-1" x="114.7" y="202.8" width="13.83" height="86.17" transform="translate(-108.56 96.66) rotate(-30.73)"/><rect class="cls-1" x="122.05" y="313.32" width="13.83" height="86.17" transform="translate(-164 115.93) rotate(-30.73)"/><rect class="cls-1" x="240.93" y="441.73" width="13.83" height="86.17" transform="translate(-283.1 605.48) rotate(-75.73)"/><rect class="cls-1" x="288.8" y="402.36" width="13.83" height="86.17" transform="translate(-208.89 622.22) rotate(-75.73)"/><rect class="cls-1" x="401.57" y="494.92" width="13.83" height="86.17" transform="translate(-213.62 801.24) rotate(-75.73)"/><rect class="cls-1" x="415.1" y="441.73" width="13.83" height="86.17" transform="translate(-151.88 774.27) rotate(-75.73)"/><rect class="cls-1" x="475.74" y="411.09" width="13.83" height="86.17" transform="translate(-76.49 809.95) rotate(-75.73)"/><rect class="cls-1" x="519.2" y="504.7" width="13.83" height="86.17" transform="translate(-134.47 922.61) rotate(-75.73)"/><rect class="cls-1" x="548.99" y="459.05" width="13.83" height="86.17" transform="translate(-67.79 917.08) rotate(-75.73)"/><rect class="cls-1" x="435.86" y="567.87" width="13.83" height="86.17" transform="translate(-258.49 889.43) rotate(-75.73)"/><rect class="cls-1" x="296.75" y="522.03" width="13.83" height="86.17" transform="translate(-318.87 720.07) rotate(-75.73)"/><rect class="cls-1" x="185.43" y="494.92" width="13.83" height="86.17" transform="translate(-376.47 591.77) rotate(-75.73)"/><rect class="cls-1" x="268.78" y="567.87" width="13.83" height="86.17" transform="translate(-384.38 727.51) rotate(-75.73)"/><rect class="cls-1" x="300.42" y="198.99" width="13.83" height="86.17" transform="translate(-3.04 480.24) rotate(-75.73)"/><rect class="cls-1" x="348.3" y="159.63" width="13.83" height="86.17" transform="translate(71.18 496.98) rotate(-75.73)"/><rect class="cls-1" x="461.06" y="252.18" width="13.83" height="86.17" transform="translate(66.45 676) rotate(-75.73)"/><rect class="cls-1" x="474.59" y="198.99" width="13.83" height="86.17" transform="translate(128.19 649.04) rotate(-75.73)"/><rect class="cls-1" x="535.23" y="168.35" width="13.83" height="86.17" transform="translate(203.57 684.72) rotate(-75.73)"/><rect class="cls-1" x="578.69" y="261.97" width="13.83" height="86.17" transform="translate(145.59 797.37) rotate(-75.73)"/><rect class="cls-1" x="608.48" y="216.31" width="13.83" height="86.17" transform="translate(212.28 791.84) rotate(-75.73)"/><rect class="cls-1" x="495.35" y="325.13" width="13.83" height="86.17" transform="translate(21.58 764.19) rotate(-75.73)"/><rect class="cls-1" x="356.24" y="279.29" width="13.83" height="86.17" transform="translate(-38.8 594.84) rotate(-75.73)"/><rect class="cls-1" x="244.92" y="252.18" width="13.83" height="86.17" transform="translate(-96.41 466.53) rotate(-75.73)"/><rect class="cls-1" x="328.27" y="325.13" width="13.83" height="86.17" transform="translate(-104.31 602.27) rotate(-75.73)"/><rect class="cls-1" x="142.5" y="297.17" width="13.83" height="86.17" transform="translate(-217.18 401.17) rotate(-75.73)"/><rect class="cls-1" x="190.37" y="257.81" width="13.83" height="86.17" transform="translate(-142.96 417.91) rotate(-75.73)"/><rect class="cls-1" x="303.14" y="350.36" width="13.83" height="86.17" transform="translate(-147.69 596.93) rotate(-75.73)"/><rect class="cls-1" x="316.67" y="297.17" width="13.83" height="86.17" transform="translate(-85.95 569.96) rotate(-75.73)"/><rect class="cls-1" x="377.31" y="266.53" width="13.83" height="86.17" transform="translate(-10.56 605.64) rotate(-75.73)"/><rect class="cls-1" x="420.77" y="360.15" width="13.83" height="86.17" transform="translate(-68.55 718.3) rotate(-75.73)"/><rect class="cls-1" x="450.55" y="314.49" width="13.83" height="86.17" transform="translate(-1.86 712.77) rotate(-75.73)"/><rect class="cls-1" x="337.42" y="423.31" width="13.83" height="86.17" transform="translate(-192.56 685.12) rotate(-75.73)"/><rect class="cls-1" x="198.31" y="377.47" width="13.83" height="86.17" transform="translate(-252.94 515.76) rotate(-75.73)"/><rect class="cls-1" x="87" y="350.36" width="13.83" height="86.17" transform="translate(-310.54 387.46) rotate(-75.73)"/><rect class="cls-1" x="170.34" y="423.31" width="13.83" height="86.17" transform="translate(-318.45 523.2) rotate(-75.73)"/><rect class="cls-1" x="291.99" y="510.09" width="13.83" height="86.17" transform="translate(-23.88 1092.76) rotate(-120.73)"/><rect class="cls-1" x="298.01" y="448.4" width="13.83" height="86.17" transform="translate(38.23 1004.73) rotate(-120.73)"/><rect class="cls-1" x="443.19" y="434.11" width="13.83" height="86.17" transform="translate(269.88 1107.94) rotate(-120.73)"/><rect class="cls-1" x="415.15" y="386.93" width="13.83" height="86.17" transform="matrix(-0.51, -0.86, 0.86, -0.51, 268.07, 1012.54)"/><rect class="cls-1" x="436.36" y="322.39" width="13.83" height="86.17" transform="matrix(-0.51, -0.86, 0.86, -0.51, 355.6, 933.25)"/><rect class="cls-1" x="533.29" y="357.85" width="13.83" height="86.17" transform="translate(471.57 1070.16) rotate(-120.73)"/><rect class="cls-1" x="522.07" y="304.51" width="13.83" height="86.17" transform="translate(500.47 979.92) rotate(-120.73)"/><rect class="cls-1" x="519.02" y="461.45" width="13.83" height="86.17" transform="translate(360.95 1214.43) rotate(-120.73)"/><rect class="cls-1" x="388.24" y="527.4" width="13.83" height="86.17" transform="translate(106.66 1201.65) rotate(-120.73)"/><rect class="cls-1" x="290.36" y="586.95" width="13.83" height="86.17" transform="translate(-92.42 1207.48) rotate(-120.73)"/><rect class="cls-1" x="400.88" y="579.6" width="13.83" height="86.17" transform="translate(80.89 1291.38) rotate(-120.73)"/><rect class="cls-1" x="244.95" y="280.35" width="13.83" height="86.17" transform="translate(102.53 705.2) rotate(-120.73)"/><rect class="cls-1" x="250.97" y="218.66" width="13.83" height="86.17" transform="translate(164.65 617.17) rotate(-120.73)"/><rect class="cls-1" x="396.16" y="204.37" width="13.83" height="86.17" transform="translate(396.3 720.38) rotate(-120.73)"/><rect class="cls-1" x="368.11" y="157.19" width="13.83" height="86.17" transform="matrix(-0.51, -0.86, 0.86, -0.51, 394.49, 624.98)"/><rect class="cls-1" x="389.32" y="92.65" width="13.83" height="86.17" transform="matrix(-0.51, -0.86, 0.86, -0.51, 482.02, 545.69)"/><rect class="cls-1" x="486.25" y="128.11" width="13.83" height="86.17" transform="translate(597.98 682.6) rotate(-120.73)"/><rect class="cls-1" x="475.03" y="74.77" width="13.83" height="86.17" transform="translate(626.89 592.36) rotate(-120.73)"/><rect class="cls-1" x="471.98" y="231.71" width="13.83" height="86.17" transform="translate(487.37 826.87) rotate(-120.73)"/><rect class="cls-1" x="341.2" y="297.66" width="13.83" height="86.17" transform="translate(233.08 814.09) rotate(-120.73)"/><rect class="cls-1" x="243.32" y="357.21" width="13.83" height="86.17" transform="translate(34 819.92) rotate(-120.73)"/><rect class="cls-1" x="353.84" y="349.86" width="13.83" height="86.17" transform="translate(207.3 903.82) rotate(-120.73)"/><rect class="cls-1" x="118.78" y="250.19" width="13.83" height="86.17" transform="translate(-62.18 551.17) rotate(-120.73)"/><rect class="cls-1" x="124.8" y="188.51" width="13.83" height="86.17" transform="translate(-0.07 463.14) rotate(-120.73)"/><rect class="cls-1" x="269.98" y="174.21" width="13.83" height="86.17" transform="translate(231.58 566.35) rotate(-120.73)"/><rect class="cls-1" x="241.94" y="127.03" width="13.83" height="86.17" transform="matrix(-0.51, -0.86, 0.86, -0.51, 229.77, 470.96)"/><rect class="cls-1" x="263.15" y="62.49" width="13.83" height="86.17" transform="matrix(-0.51, -0.86, 0.86, -0.51, 317.3, 391.67)"/><rect class="cls-1" x="360.08" y="97.96" width="13.83" height="86.17" transform="translate(433.26 528.58) rotate(-120.73)"/><rect class="cls-1" x="348.86" y="44.61" width="13.83" height="86.17" transform="translate(462.17 438.33) rotate(-120.73)"/><rect class="cls-1" x="345.81" y="201.56" width="13.83" height="86.17" transform="translate(322.65 672.85) rotate(-120.73)"/><rect class="cls-1" x="215.03" y="267.5" width="13.83" height="86.17" transform="translate(68.36 660.07) rotate(-120.73)"/><rect class="cls-1" x="117.15" y="327.05" width="13.83" height="86.17" transform="translate(-130.72 665.9) rotate(-120.73)"/><rect class="cls-1" x="227.67" y="319.7" width="13.83" height="86.17" transform="translate(42.58 749.8) rotate(-120.73)"/><rect class="cls-1" x="486.05" y="443.19" width="13.83" height="86.17" transform="translate(850.83 1079.08) rotate(-165.73)"/><rect class="cls-1" x="446.69" y="395.32" width="13.83" height="86.17" transform="translate(785.12 975.11) rotate(-165.73)"/><rect class="cls-1" x="539.24" y="282.55" width="13.83" height="86.17" transform="translate(995.17 775.88) rotate(-165.73)"/><rect class="cls-1" x="486.05" y="269.02" width="13.83" height="86.17" transform="translate(893.77 736.12) rotate(-165.73)"/><rect class="cls-1" x="455.41" y="208.38" width="13.83" height="86.17" transform="translate(848.38 609.16) rotate(-165.73)"/><rect class="cls-1" x="549.03" y="164.92" width="13.83" height="86.17" transform="translate(1043.44 546.66) rotate(-165.73)"/><rect class="cls-1" x="503.38" y="135.14" width="13.83" height="86.17" transform="translate(960.89 476.75) rotate(-165.73)"/><rect class="cls-1" x="612.2" y="248.27" width="13.83" height="86.17" transform="translate(1147.28 726.35) rotate(-165.73)"/><rect class="cls-1" x="566.35" y="387.38" width="13.83" height="86.17" transform="translate(1022.71 988.97) rotate(-165.73)"/><rect class="cls-1" x="539.24" y="498.69" width="13.83" height="86.17" transform="translate(941.89 1201.49) rotate(-165.73)"/><rect class="cls-1" x="612.2" y="415.35" width="13.83" height="86.17" transform="translate(1106.09 1055.35) rotate(-165.73)"/><rect class="cls-1" x="284.88" y="500.66" width="13.83" height="86.17" transform="translate(440.52 1142.64) rotate(-165.73)"/><rect class="cls-1" x="245.51" y="452.79" width="13.83" height="86.17" transform="translate(374.81 1038.67) rotate(-165.73)"/><rect class="cls-1" x="338.07" y="340.02" width="13.83" height="86.17" transform="translate(584.86 839.44) rotate(-165.73)"/><rect class="cls-1" x="284.88" y="326.49" width="13.83" height="86.17" transform="translate(483.46 799.68) rotate(-165.73)"/><rect class="cls-1" x="254.23" y="265.85" width="13.83" height="86.17" transform="translate(438.07 672.72) rotate(-165.73)"/><rect class="cls-1" x="347.85" y="222.39" width="13.83" height="86.17" transform="translate(633.13 610.22) rotate(-165.73)"/><rect class="cls-1" x="302.2" y="192.6" width="13.83" height="86.17" transform="translate(550.58 540.31) rotate(-165.73)"/><rect class="cls-1" x="411.02" y="305.74" width="13.83" height="86.17" transform="translate(736.97 789.92) rotate(-165.73)"/><rect class="cls-1" x="365.18" y="444.84" width="13.83" height="86.17" transform="translate(612.4 1052.53) rotate(-165.73)"/><rect class="cls-1" x="338.07" y="556.16" width="13.83" height="86.17" transform="translate(531.57 1265.05) rotate(-165.73)"/><rect class="cls-1" x="411.02" y="472.82" width="13.83" height="86.17" transform="translate(695.77 1118.92) rotate(-165.73)"/><rect class="cls-1" x="144.83" y="452.77" width="13.83" height="86.17" transform="translate(176.56 1013.81) rotate(-165.73)"/><rect class="cls-1" x="105.47" y="404.89" width="13.83" height="86.17" transform="translate(110.86 909.84) rotate(-165.73)"/><rect class="cls-1" x="198.03" y="292.13" width="13.83" height="86.17" transform="translate(320.91 710.61) rotate(-165.73)"/><rect class="cls-1" x="144.83" y="278.6" width="13.83" height="86.17" transform="translate(219.5 670.84) rotate(-165.73)"/><rect class="cls-1" x="114.19" y="217.96" width="13.83" height="86.17" transform="translate(174.12 543.89) rotate(-165.73)"/><rect class="cls-1" x="207.81" y="174.5" width="13.83" height="86.17" transform="translate(369.18 481.39) rotate(-165.73)"/><rect class="cls-1" x="162.16" y="144.71" width="13.83" height="86.17" transform="translate(286.63 411.48) rotate(-165.73)"/><rect class="cls-1" x="270.98" y="257.84" width="13.83" height="86.17" transform="translate(473.01 661.08) rotate(-165.73)"/><rect class="cls-1" x="225.13" y="396.95" width="13.83" height="86.17" transform="translate(348.45 923.7) rotate(-165.73)"/><rect class="cls-1" x="198.03" y="508.27" width="13.83" height="86.17" transform="translate(267.62 1136.21) rotate(-165.73)"/><rect class="cls-1" x="270.98" y="424.92" width="13.83" height="86.17" transform="translate(431.82 990.08) rotate(-165.73)"/><rect class="cls-1" x="286.41" y="371.84" width="13.83" height="86.17" transform="translate(475.29 889.36) rotate(-165.73)"/><rect class="cls-1" x="247.05" y="323.97" width="13.83" height="86.17" transform="translate(409.59 785.38) rotate(-165.73)"/><rect class="cls-1" x="339.6" y="211.2" width="13.83" height="86.17" transform="translate(619.64 586.15) rotate(-165.73)"/><rect class="cls-1" x="286.41" y="197.67" width="13.83" height="86.17" transform="translate(518.23 546.39) rotate(-165.73)"/><rect class="cls-1" x="255.77" y="137.03" width="13.83" height="86.17" transform="translate(472.85 419.43) rotate(-165.73)"/><rect class="cls-1" x="349.38" y="93.57" width="13.83" height="86.17" transform="translate(667.91 356.93) rotate(-165.73)"/><rect class="cls-1" x="303.73" y="63.78" width="13.83" height="86.17" transform="translate(585.36 287.02) rotate(-165.73)"/><rect class="cls-1" x="412.55" y="176.92" width="13.83" height="86.17" transform="translate(771.74 536.63) rotate(-165.73)"/><rect class="cls-1" x="366.71" y="316.02" width="13.83" height="86.17" transform="translate(647.18 799.25) rotate(-165.73)"/><rect class="cls-1" x="339.6" y="427.34" width="13.83" height="86.17" transform="translate(566.35 1011.76) rotate(-165.73)"/><rect class="cls-1" x="412.55" y="343.99" width="13.83" height="86.17" transform="translate(730.55 865.63) rotate(-165.73)"/><rect class="cls-2" x="362.68" y="170.41" width="13.83" height="86.17" transform="translate(364.27 -213.3) rotate(59.27)"/><rect class="cls-2" x="356.66" y="232.09" width="13.83" height="86.17" transform="translate(414.36 -177.96) rotate(59.27)"/><rect class="cls-2" x="211.48" y="246.39" width="13.83" height="86.17" transform="translate(355.64 -46.17) rotate(59.27)"/><rect class="cls-2" x="239.52" y="293.57" width="13.83" height="86.17" transform="translate(409.91 -47.2) rotate(59.27)"/><rect class="cls-2" x="218.31" y="358.11" width="13.83" height="86.17" transform="translate(455.02 2.6) rotate(59.27)"/><rect class="cls-2" x="121.38" y="322.64" width="13.83" height="86.17" transform="translate(377.13 68.57) rotate(59.27)"/><rect class="cls-2" x="132.6" y="375.99" width="13.83" height="86.17" transform="translate(428.47 85.02) rotate(59.27)"/><rect class="cls-2" x="135.65" y="219.04" width="13.83" height="86.17" transform="translate(295.05 5.64) rotate(59.27)"/><rect class="cls-2" x="266.43" y="153.1" width="13.83" height="86.17" transform="translate(302.32 -139.03) rotate(59.27)"/><rect class="cls-2" x="364.31" y="93.55" width="13.83" height="86.17" transform="translate(299.01 -252.29) rotate(59.27)"/><rect class="cls-2" x="253.79" y="100.9" width="13.83" height="86.17" transform="translate(251.27 -153.69) rotate(59.27)"/><rect class="cls-2" x="543.97" y="344.18" width="13.83" height="86.17" transform="translate(602.31 -284.16) rotate(59.27)"/><rect class="cls-2" x="537.95" y="405.86" width="13.83" height="86.17" transform="translate(652.39 -248.82) rotate(59.27)"/><rect class="cls-2" x="392.77" y="420.15" width="13.83" height="86.17" transform="translate(593.67 -117.02) rotate(59.27)"/><rect class="cls-2" x="420.81" y="467.33" width="13.83" height="86.17" transform="translate(647.95 -118.06) rotate(59.27)"/><rect class="cls-2" x="399.6" y="531.88" width="13.83" height="86.17" transform="translate(693.05 -68.26) rotate(59.27)"/><rect class="cls-2" x="302.67" y="496.41" width="13.83" height="86.17" transform="translate(615.16 -2.28) rotate(59.27)"/><rect class="cls-2" x="313.89" y="549.75" width="13.83" height="86.17" transform="translate(666.51 14.16) rotate(59.27)"/><rect class="cls-2" x="316.94" y="392.81" width="13.83" height="86.17" transform="translate(533.09 -65.21) rotate(59.27)"/><rect class="cls-2" x="447.72" y="326.86" width="13.83" height="86.17" transform="translate(540.35 -209.89) rotate(59.27)"/><rect class="cls-2" x="545.6" y="267.32" width="13.83" height="86.17" transform="translate(537.04 -323.15) rotate(59.27)"/><rect class="cls-2" x="435.08" y="274.67" width="13.83" height="86.17" transform="translate(489.31 -224.55) rotate(59.27)"/><rect class="cls-2" x="504.46" y="152.36" width="13.83" height="86.17" transform="translate(63.97 -120.04) rotate(14.27)"/><rect class="cls-2" x="543.82" y="200.23" width="13.83" height="86.17" transform="translate(76.99 -128.27) rotate(14.27)"/><rect class="cls-2" x="451.27" y="313" width="13.83" height="86.17" transform="translate(101.94 -101.97) rotate(14.27)"/><rect class="cls-2" x="504.46" y="326.53" width="13.83" height="86.17" transform="translate(106.91 -114.67) rotate(14.27)"/><rect class="cls-2" x="535.1" y="387.17" width="13.83" height="86.17" transform="translate(122.81 -120.35) rotate(14.27)"/><rect class="cls-2" x="441.48" y="430.63" width="13.83" height="86.17" transform="translate(130.63 -95.93) rotate(14.27)"/><rect class="cls-2" x="487.14" y="460.42" width="13.83" height="86.17" transform="translate(139.39 -106.26) rotate(14.27)"/><rect class="cls-2" x="378.32" y="347.28" width="13.83" height="86.17" transform="translate(108.14 -82.93) rotate(14.27)"/><rect class="cls-2" x="424.16" y="208.18" width="13.83" height="86.17" transform="translate(75.25 -98.52) rotate(14.27)"/><rect class="cls-2" x="451.27" y="96.86" width="13.83" height="86.17" transform="translate(48.65 -108.64) rotate(14.27)"/><rect class="cls-2" x="378.32" y="180.2" width="13.83" height="86.17" transform="translate(66.94 -88.08) rotate(14.27)"/><rect class="cls-2" x="317.94" y="124.11" width="13.83" height="86.17" transform="translate(51.25 -74.93) rotate(14.27)"/><rect class="cls-2" x="357.3" y="171.98" width="13.83" height="86.17" transform="translate(64.27 -83.16) rotate(14.27)"/><rect class="cls-2" x="264.75" y="284.75" width="13.83" height="86.17" transform="translate(89.21 -56.86) rotate(14.27)"/><rect class="cls-2" x="317.94" y="298.28" width="13.83" height="86.17" transform="translate(94.19 -69.55) rotate(14.27)"/><rect class="cls-2" x="348.58" y="358.92" width="13.83" height="86.17" transform="translate(110.09 -75.24) rotate(14.27)"/><rect class="cls-2" x="254.96" y="402.38" width="13.83" height="86.17" transform="translate(117.91 -50.81) rotate(14.27)"/><rect class="cls-2" x="300.61" y="432.17" width="13.83" height="86.17" transform="translate(126.66 -61.15) rotate(14.27)"/><rect class="cls-2" x="191.79" y="319.03" width="13.83" height="86.17" transform="translate(95.41 -37.81) rotate(14.27)"/><rect class="cls-2" x="237.64" y="179.93" width="13.83" height="86.17" transform="translate(62.53 -53.41) rotate(14.27)"/><rect class="cls-2" x="264.75" y="68.61" width="13.83" height="86.17" transform="translate(35.92 -63.53) rotate(14.27)"/><rect class="cls-2" x="191.79" y="151.95" width="13.83" height="86.17" transform="translate(54.22 -42.97) rotate(14.27)"/><rect class="cls-2" x="185.06" y="326.81" width="13.83" height="86.17" transform="translate(-162.05 150.02) rotate(-30.73)"/><rect class="cls-2" x="246.74" y="332.83" width="13.83" height="86.17" transform="matrix(0.86, -0.51, 0.51, 0.86, -156.46, 182.38)"/><rect class="cls-2" x="261.03" y="478.02" width="13.83" height="86.17" transform="matrix(0.86, -0.51, 0.51, 0.86, -228.64, 210.06)"/><rect class="cls-2" x="308.21" y="449.97" width="13.83" height="86.17" transform="translate(-207.69 230.23) rotate(-30.73)"/><rect class="cls-2" x="372.76" y="471.18" width="13.83" height="86.17" transform="matrix(0.86, -0.51, 0.51, 0.86, -209.46, 266.19)"/><rect class="cls-2" x="337.29" y="568.11" width="13.83" height="86.17" transform="translate(-263.97 261.67) rotate(-30.73)"/><rect class="cls-2" x="390.63" y="556.89" width="13.83" height="86.17" transform="translate(-250.75 287.35) rotate(-30.73)"/><rect class="cls-2" x="233.69" y="553.84" width="13.83" height="86.17" transform="translate(-271.22 206.74) rotate(-30.73)"/><rect class="cls-2" x="167.74" y="423.06" width="13.83" height="86.17" transform="translate(-213.66 154.68) rotate(-30.73)"/><rect class="cls-2" x="108.2" y="325.18" width="13.83" height="86.17" transform="translate(-172 110.52) rotate(-30.73)"/><rect class="cls-2" x="115.55" y="435.7" width="13.83" height="86.17" transform="translate(-227.44 129.79) rotate(-30.73)"/><rect class="cls-2" x="398.76" y="197.24" width="13.83" height="86.17" transform="translate(-65.84 241.02) rotate(-30.73)"/><rect class="cls-2" x="460.45" y="203.26" width="13.83" height="86.17" transform="matrix(0.86, -0.51, 0.51, 0.86, -60.26, 273.38)"/><rect class="cls-2" x="474.74" y="348.44" width="13.83" height="86.17" transform="matrix(0.86, -0.51, 0.51, 0.86, -132.43, 301.06)"/><rect class="cls-2" x="521.92" y="320.4" width="13.83" height="86.17" transform="translate(-111.48 321.23) rotate(-30.73)"/><rect class="cls-2" x="586.46" y="341.61" width="13.83" height="86.17" transform="translate(-113.25 357.19) rotate(-30.73)"/><rect class="cls-2" x="551" y="438.54" width="13.83" height="86.17" transform="translate(-167.76 352.68) rotate(-30.73)"/><rect class="cls-2" x="604.34" y="427.32" width="13.83" height="86.17" transform="translate(-154.54 378.36) rotate(-30.73)"/><rect class="cls-2" x="447.4" y="424.27" width="13.83" height="86.17" transform="matrix(0.86, -0.51, 0.51, 0.86, -175.01, 297.74)"/><rect class="cls-2" x="381.45" y="293.49" width="13.83" height="86.17" transform="translate(-117.45 245.68) rotate(-30.73)"/><rect class="cls-2" x="321.9" y="195.61" width="13.83" height="86.17" transform="translate(-75.8 201.52) rotate(-30.73)"/><rect class="cls-2" x="329.25" y="306.13" width="13.83" height="86.17" transform="translate(-131.23 220.79) rotate(-30.73)"/><rect class="cls-2" x="217.67" y="154.99" width="13.83" height="86.17" transform="matrix(0.86, -0.51, 0.51, 0.86, -69.68, 142.56)"/><rect class="cls-2" x="279.35" y="161.01" width="13.83" height="86.17" transform="translate(-64.09 174.92) rotate(-30.73)"/><rect class="cls-2" x="293.65" y="306.2" width="13.83" height="86.17" transform="matrix(0.86, -0.51, 0.51, 0.86, -136.27, 202.6)"/><rect class="cls-2" x="340.83" y="278.15" width="13.83" height="86.17" transform="translate(-115.32 222.77) rotate(-30.73)"/><rect class="cls-2" x="405.37" y="299.36" width="13.83" height="86.17" transform="matrix(0.86, -0.51, 0.51, 0.86, -117.09, 258.73)"/><rect class="cls-2" x="369.9" y="396.29" width="13.83" height="86.17" transform="translate(-171.6 254.22) rotate(-30.73)"/><rect class="cls-2" x="423.25" y="385.07" width="13.83" height="86.17" transform="translate(-158.38 279.9) rotate(-30.73)"/><rect class="cls-2" x="266.3" y="382.02" width="13.83" height="86.17" transform="translate(-178.85 199.28) rotate(-30.73)"/><rect class="cls-2" x="200.36" y="251.24" width="13.83" height="86.17" transform="translate(-121.29 147.22) rotate(-30.73)"/><rect class="cls-2" x="140.81" y="153.36" width="13.83" height="86.17" transform="translate(-79.63 103.06) rotate(-30.73)"/><rect class="cls-2" x="148.16" y="263.88" width="13.83" height="86.17" transform="translate(-135.07 122.33) rotate(-30.73)"/><rect class="cls-2" x="172.82" y="411.26" width="13.83" height="86.17" transform="translate(-304.9 516.51) rotate(-75.73)"/><rect class="cls-2" x="220.69" y="371.9" width="13.83" height="86.17" transform="translate(-230.68 533.25) rotate(-75.73)"/><rect class="cls-2" x="333.46" y="464.45" width="13.83" height="86.17" transform="translate(-235.41 712.27) rotate(-75.73)"/><rect class="cls-2" x="346.99" y="411.26" width="13.83" height="86.17" transform="translate(-173.67 685.31) rotate(-75.73)"/><rect class="cls-2" x="407.63" y="380.62" width="13.83" height="86.17" transform="translate(-98.28 720.99) rotate(-75.73)"/><rect class="cls-2" x="451.09" y="474.23" width="13.83" height="86.17" transform="translate(-156.27 833.64) rotate(-75.73)"/><rect class="cls-2" x="480.88" y="428.58" width="13.83" height="86.17" transform="translate(-89.58 828.11) rotate(-75.73)"/><rect class="cls-2" x="367.74" y="537.4" width="13.83" height="86.17" transform="translate(-280.28 800.46) rotate(-75.73)"/><rect class="cls-2" x="228.64" y="491.56" width="13.83" height="86.17" transform="translate(-340.66 631.11) rotate(-75.73)"/><rect class="cls-2" x="117.32" y="464.45" width="13.83" height="86.17" transform="translate(-398.26 502.8) rotate(-75.73)"/><rect class="cls-2" x="200.66" y="537.4" width="13.83" height="86.17" transform="translate(-406.17 638.54) rotate(-75.73)"/><rect class="cls-2" x="302.01" y="215.55" width="13.83" height="86.17" transform="translate(-17.89 494.26) rotate(-75.73)"/><rect class="cls-2" x="349.88" y="176.18" width="13.83" height="86.17" transform="translate(56.33 510.99) rotate(-75.73)"/><rect class="cls-2" x="462.65" y="268.74" width="13.83" height="86.17" transform="translate(51.6 690.01) rotate(-75.73)"/><rect class="cls-2" x="476.18" y="215.55" width="13.83" height="86.17" transform="translate(113.34 663.05) rotate(-75.73)"/><rect class="cls-2" x="536.82" y="184.91" width="13.83" height="86.17" transform="translate(188.73 698.73) rotate(-75.73)"/><rect class="cls-2" x="580.28" y="278.52" width="13.83" height="86.17" transform="translate(130.75 811.39) rotate(-75.73)"/><rect class="cls-2" x="610.07" y="232.87" width="13.83" height="86.17" transform="translate(197.43 805.86) rotate(-75.73)"/><rect class="cls-2" x="496.93" y="341.69" width="13.83" height="86.17" transform="translate(6.73 778.21) rotate(-75.73)"/><rect class="cls-2" x="357.83" y="295.85" width="13.83" height="86.17" transform="translate(-53.65 608.85) rotate(-75.73)"/><rect class="cls-2" x="246.51" y="268.74" width="13.83" height="86.17" transform="translate(-111.25 480.55) rotate(-75.73)"/><rect class="cls-2" x="329.86" y="341.69" width="13.83" height="86.17" transform="translate(-119.16 616.28) rotate(-75.73)"/><rect class="cls-2" x="234.12" y="105" width="13.83" height="86.17" transform="translate(38.09 345.17) rotate(-75.73)"/><rect class="cls-2" x="281.99" y="65.64" width="13.83" height="86.17" transform="translate(112.31 361.91) rotate(-75.73)"/><rect class="cls-2" x="394.76" y="158.2" width="13.83" height="86.17" transform="translate(107.57 540.93) rotate(-75.73)"/><rect class="cls-2" x="408.29" y="105" width="13.83" height="86.17" transform="translate(169.32 513.96) rotate(-75.73)"/><rect class="cls-2" x="468.93" y="74.36" width="13.83" height="86.17" transform="translate(244.7 549.64) rotate(-75.73)"/><rect class="cls-2" x="512.39" y="167.98" width="13.83" height="86.17" transform="translate(186.72 662.3) rotate(-75.73)"/><rect class="cls-2" x="429.04" y="231.15" width="13.83" height="86.17" transform="translate(62.71 629.12) rotate(-75.73)"/><rect class="cls-2" x="289.93" y="185.3" width="13.83" height="86.17" transform="translate(2.32 459.77) rotate(-75.73)"/><rect class="cls-2" x="178.62" y="158.2" width="13.83" height="86.17" transform="translate(-55.28 331.46) rotate(-75.73)"/><rect class="cls-2" x="261.96" y="231.15" width="13.83" height="86.17" transform="translate(-63.18 467.2) rotate(-75.73)"/><rect class="cls-2" x="357.35" y="501.18" width="13.83" height="86.17" transform="translate(82.52 1135.47) rotate(-120.73)"/><rect class="cls-2" x="363.36" y="439.49" width="13.83" height="86.17" transform="translate(144.64 1047.45) rotate(-120.73)"/><rect class="cls-2" x="508.55" y="425.2" width="13.83" height="86.17" transform="translate(376.29 1150.65) rotate(-120.73)"/><rect class="cls-2" x="480.5" y="378.02" width="13.83" height="86.17" transform="matrix(-0.51, -0.86, 0.86, -0.51, 374.47, 1055.26)"/><rect class="cls-2" x="501.71" y="313.48" width="13.83" height="86.17" transform="matrix(-0.51, -0.86, 0.86, -0.51, 462.01, 975.97)"/><rect class="cls-2" x="598.64" y="348.94" width="13.83" height="86.17" transform="translate(577.97 1112.88) rotate(-120.73)"/><rect class="cls-2" x="587.42" y="295.6" width="13.83" height="86.17" transform="translate(606.88 1022.63) rotate(-120.73)"/><rect class="cls-2" x="584.37" y="452.54" width="13.83" height="86.17" transform="translate(467.36 1257.15) rotate(-120.73)"/><rect class="cls-2" x="453.59" y="518.49" width="13.83" height="86.17" transform="translate(213.07 1244.37) rotate(-120.73)"/><rect class="cls-2" x="355.71" y="578.03" width="13.83" height="86.17" transform="translate(13.99 1250.2) rotate(-120.73)"/><rect class="cls-2" x="466.23" y="570.69" width="13.83" height="86.17" transform="translate(187.29 1334.1) rotate(-120.73)"/><rect class="cls-2" x="174.46" y="399.56" width="13.83" height="86.17" transform="translate(-106.46 824.72) rotate(-120.73)"/><rect class="cls-2" x="180.47" y="337.87" width="13.83" height="86.17" transform="translate(-44.34 736.69) rotate(-120.73)"/><rect class="cls-2" x="325.66" y="323.58" width="13.83" height="86.17" transform="matrix(-0.51, -0.86, 0.86, -0.51, 187.3, 839.9)"/><rect class="cls-2" x="297.61" y="276.4" width="13.83" height="86.17" transform="translate(185.49 744.5) rotate(-120.73)"/><rect class="cls-2" x="318.82" y="211.86" width="13.83" height="86.17" transform="matrix(-0.51, -0.86, 0.86, -0.51, 273.02, 665.21)"/><rect class="cls-2" x="415.75" y="247.32" width="13.83" height="86.17" transform="translate(388.99 802.12) rotate(-120.73)"/><rect class="cls-2" x="404.53" y="193.98" width="13.83" height="86.17" transform="translate(417.89 711.88) rotate(-120.73)"/><rect class="cls-2" x="401.48" y="350.92" width="13.83" height="86.17" transform="translate(278.37 946.39) rotate(-120.73)"/><rect class="cls-2" x="270.7" y="416.87" width="13.83" height="86.17" transform="translate(24.08 933.62) rotate(-120.73)"/><rect class="cls-2" x="172.82" y="476.42" width="13.83" height="86.17" transform="translate(-175 939.44) rotate(-120.73)"/><rect class="cls-2" x="283.34" y="469.07" width="13.83" height="86.17" transform="translate(-1.69 1023.34) rotate(-120.73)"/><rect class="cls-2" x="109.3" y="266.67" width="13.83" height="86.17" transform="translate(-90.68 567.92) rotate(-120.73)"/><rect class="cls-2" x="115.32" y="204.98" width="13.83" height="86.17" transform="translate(-28.56 479.89) rotate(-120.73)"/><rect class="cls-2" x="260.5" y="190.69" width="13.83" height="86.17" transform="translate(203.09 583.1) rotate(-120.73)"/><rect class="cls-2" x="232.45" y="143.51" width="13.83" height="86.17" transform="translate(201.27 487.7) rotate(-120.73)"/><rect class="cls-2" x="253.67" y="78.97" width="13.83" height="86.17" transform="matrix(-0.51, -0.86, 0.86, -0.51, 288.81, 408.41)"/><rect class="cls-2" x="350.59" y="114.43" width="13.83" height="86.17" transform="translate(404.77 545.32) rotate(-120.73)"/><rect class="cls-2" x="339.38" y="61.09" width="13.83" height="86.17" transform="translate(433.68 455.08) rotate(-120.73)"/><rect class="cls-2" x="336.33" y="218.03" width="13.83" height="86.17" transform="translate(294.16 689.59) rotate(-120.73)"/><rect class="cls-2" x="205.55" y="283.98" width="13.83" height="86.17" transform="translate(39.86 676.81) rotate(-120.73)"/><rect class="cls-2" x="107.66" y="343.53" width="13.83" height="86.17" transform="translate(-159.22 682.64) rotate(-120.73)"/><rect class="cls-2" x="218.18" y="336.18" width="13.83" height="86.17" transform="matrix(-0.51, -0.86, 0.86, -0.51, 14.09, 766.54)"/><rect class="cls-2" x="266.63" y="309.55" width="13.83" height="86.17" transform="translate(110.18 767.96) rotate(-120.73)"/><rect class="cls-2" x="272.65" y="247.87" width="13.83" height="86.17" transform="translate(172.3 679.93) rotate(-120.73)"/><rect class="cls-2" x="417.83" y="233.58" width="13.83" height="86.17" transform="translate(403.95 783.14) rotate(-120.73)"/><rect class="cls-2" x="389.79" y="186.39" width="13.83" height="86.17" transform="matrix(-0.51, -0.86, 0.86, -0.51, 402.13, 687.74)"/><rect class="cls-2" x="411" y="121.85" width="13.83" height="86.17" transform="matrix(-0.51, -0.86, 0.86, -0.51, 489.66, 608.45)"/><rect class="cls-2" x="507.93" y="157.32" width="13.83" height="86.17" transform="translate(605.63 745.36) rotate(-120.73)"/><rect class="cls-2" x="496.71" y="103.97" width="13.83" height="86.17" transform="translate(634.53 655.12) rotate(-120.73)"/><rect class="cls-2" x="493.66" y="260.92" width="13.83" height="86.17" transform="translate(495.01 889.63) rotate(-120.73)"/><rect class="cls-2" x="362.88" y="326.87" width="13.83" height="86.17" transform="translate(240.72 876.85) rotate(-120.73)"/><rect class="cls-2" x="265" y="386.41" width="13.83" height="86.17" transform="translate(41.64 882.68) rotate(-120.73)"/><rect class="cls-2" x="375.52" y="379.06" width="13.83" height="86.17" transform="translate(214.95 966.58) rotate(-120.73)"/></svg>