<svg id="Layer_1" data-name="Layer 1" xmlns="http://www.w3.org/2000/svg" viewBox="0 0 720 720"><defs><style>.cls-1{fill:#fbe3a9;}.cls-2{fill:#fce9c0;}</style></defs><title>pizzagraphics</title><circle class="cls-1" cx="360" cy="360" r="360"/><path class="cls-2" d="M666.15,360c0,43.55-19.15,67.87-25.48,122.47-5.43,46.83-37.59,100.89-82.94,111.27-46.9,10.73-78.58,52.52-125.64,63.87-23.12,5.58-31.9-3.14-72.09,8.54-42.51,12.36-96.37,4.46-124.35-26.31-31.2-34.31-81.25-35.13-100.17-71.71-17-32.94-22.14-72.62-67.86-117.09C46,430,38,387.46,53.85,360c31.45-54.47,10.38-90.62,28.94-130.11,16.67-35.45,50.72-59.09,68.23-93.63,21.51-42.44,55.48-43.61,88.23-57.69C276.3,62.67,318.11,63,360,53.85c50.83-11.09,91.22-1.25,122.18,25.35,46.73,40.16,71,39.88,98.82,68.94,33.7,35.14,35.14,94.62,73,126.34C675.72,292.63,666.15,330.32,666.15,360Z"/></svg>