<svg id="Layer_1" data-name="Layer 1" xmlns="http://www.w3.org/2000/svg" viewBox="0 0 720 720"><defs><style>.cls-1{fill:#399f49;}</style></defs><title>pizzagraphics</title><path class="cls-1" d="M173.11,152.88l21.05,9.65s20.18-25.44,42.11-30.7l-10.53-20.18S186.26,125.68,173.11,152.88Z"/><path class="cls-1" d="M273.12,185.6l17.55,15.11s26.44-18.84,49-17.81l-4.51-22.3S293.31,163.13,273.12,185.6Z"/><path class="cls-1" d="M208.74,301l12.38-19.57s-22.51-23.39-24.8-45.83l-21.4,7.74S183.55,284.35,208.74,301Z"/><path class="cls-1" d="M94.21,284.46l-13.52,18.8s21.08,24.69,22,47.23L124.54,344S118.37,302.61,94.21,284.46Z"/><path class="cls-1" d="M179.31,435.18l22.92-3.28s3.2-32.31,18.79-48.61L201.25,372S175.65,405.19,179.31,435.18Z"/><path class="cls-1" d="M134.16,534.28l21.05,9.65s20.18-25.44,42.11-30.7l-10.53-20.18S147.32,507.09,134.16,534.28Z"/><path class="cls-1" d="M240,566.56l-6.29,22.29s28.24,16,36.82,36.87l18.31-13.51S268.9,575.37,240,566.56Z"/><path class="cls-1" d="M367.51,647.88l21.64-8.26s-4-32.22,7.6-51.55L375,581.44S357.33,619.43,367.51,647.88Z"/><path class="cls-1" d="M569.27,481.23l-23.11,1.44s-5.76,32-22.6,47l18.81,12.81S570.52,511.42,569.27,481.23Z"/><path class="cls-1" d="M483,515.13l-16.17-16.58S438.84,515,416.49,512L419,534.65S460.92,535.76,483,515.13Z"/><path class="cls-1" d="M275.38,528.56l22.76-4.27s1.79-32.42,16.66-49.38l-20.24-10.4S270.43,498.76,275.38,528.56Z"/><path class="cls-1" d="M324.73,393.86l15.36,17.33s28.74-15.11,50.92-11.07l-1.47-22.71S347.76,374.3,324.73,393.86Z"/><path class="cls-1" d="M267.35,257l2.2,23.05s32.13,4.7,47.67,21l12.18-19.22S297.47,254.73,267.35,257Z"/><path class="cls-1" d="M473.14,169.47l-5-22.62s-32.46-.8-49.86-15.15l-9.78,20.55S443.51,175.33,473.14,169.47Z"/><path class="cls-1" d="M378.37,292.18l21.05,9.65s20.18-25.44,42.11-30.7L431,250.95S391.53,265,378.37,292.18Z"/><path class="cls-1" d="M527.23,251.58l15.46-17.24S524.39,207.52,525.87,185l-22.39,4.07S505.17,230.94,527.23,251.58Z"/><path class="cls-1" d="M451.65,364.14l-5.51,22.49s28.79,15,38.09,35.56l17.83-14.14S480.83,371.94,451.65,364.14Z"/><path class="cls-1" d="M585.5,304.27l-8,21.72s26.89,18.19,33.8,39.66l19.32-12S613.61,315.33,585.5,304.27Z"/></svg>