<svg id="Layer_1" data-name="Layer 1" xmlns="http://www.w3.org/2000/svg" viewBox="0 0 720 720"><defs><style>.cls-1{fill:#ef9aa7;}</style></defs><title>pizzagraphics</title><circle class="cls-1" cx="580.17" cy="444.29" r="55.32" transform="translate(-144.23 540.37) rotate(-45)"/><circle class="cls-1" cx="440.68" cy="588.77" r="55.32" transform="translate(-287.25 484.05) rotate(-45)"/><circle class="cls-1" cx="260.13" cy="584.9" r="55.32" transform="translate(-337.39 355.25) rotate(-45)"/><circle class="cls-1" cx="565.37" cy="273.12" r="55.32" transform="translate(-27.53 479.77) rotate(-45)"/><circle class="cls-1" cx="461.96" cy="175.61" r="55.32" transform="translate(11.13 378.09) rotate(-45)"/><circle class="cls-1" cx="276.94" cy="170.54" r="55.32" transform="translate(-39.47 245.78) rotate(-45)"/><circle class="cls-1" cx="148.64" cy="292.32" r="55.32" transform="translate(-163.16 190.72) rotate(-45)"/><circle class="cls-1" cx="141.44" cy="456.82" r="55.32" transform="translate(-281.59 233.81) rotate(-45)"/><circle class="cls-1" cx="363.35" cy="477.68" r="55.32" transform="translate(-231.35 396.84) rotate(-45)"/><circle class="cls-1" cx="462.53" cy="378.51" r="55.32" transform="translate(-132.17 437.92) rotate(-45)"/><circle class="cls-1" cx="373.24" cy="281.33" r="55.32" transform="translate(-89.61 346.32) rotate(-45)"/><circle class="cls-1" cx="273" cy="375.88" r="55.32" transform="translate(-185.83 303.13) rotate(-45)"/></svg>