<svg id="Layer_1" data-name="Layer 1" xmlns="http://www.w3.org/2000/svg" viewBox="0 0 720 720"><defs><style>.cls-1{fill:#fff197;}.cls-2{fill:#fffbcc;}</style></defs><title>pizzagraphics</title><rect class="cls-1" x="255.94" y="205.53" width="13.83" height="86.17" transform="translate(69.41 -57.13) rotate(14.27)"/><rect class="cls-1" x="295.3" y="253.4" width="13.83" height="86.17" transform="translate(82.43 -65.36) rotate(14.27)"/><rect class="cls-1" x="202.74" y="366.17" width="13.83" height="86.17" transform="translate(107.37 -39.06) rotate(14.27)"/><rect class="cls-1" x="255.94" y="379.7" width="13.83" height="86.17" transform="translate(112.35 -51.75) rotate(14.27)"/><rect class="cls-1" x="286.58" y="440.34" width="13.83" height="86.17" transform="translate(128.25 -57.44) rotate(14.27)"/><rect class="cls-1" x="192.96" y="483.8" width="13.83" height="86.17" transform="translate(136.07 -33.01) rotate(14.27)"/><rect class="cls-1" x="238.61" y="513.59" width="13.83" height="86.17" transform="translate(144.82 -43.35) rotate(14.27)"/><rect class="cls-1" x="129.79" y="400.45" width="13.83" height="86.17" transform="translate(113.57 -20.01) rotate(14.27)"/><rect class="cls-1" x="175.64" y="261.35" width="13.83" height="86.17" transform="translate(80.69 -35.61) rotate(14.27)"/><rect class="cls-1" x="202.74" y="150.03" width="13.83" height="86.17" transform="translate(54.08 -45.73) rotate(14.27)"/><rect class="cls-1" x="129.79" y="233.38" width="13.83" height="86.17" transform="translate(72.38 -25.17) rotate(14.27)"/><rect class="cls-1" x="507" y="200.21" width="13.83" height="86.17" transform="translate(75.85 -119.19) rotate(14.27)"/><rect class="cls-1" x="546.36" y="248.09" width="13.83" height="86.17" transform="translate(88.87 -127.42) rotate(14.27)"/><rect class="cls-1" x="453.81" y="360.85" width="13.83" height="86.17" transform="translate(113.81 -101.12) rotate(14.27)"/><rect class="cls-1" x="507" y="374.38" width="13.83" height="86.17" transform="translate(118.79 -113.82) rotate(14.27)"/><rect class="cls-1" x="537.64" y="435.02" width="13.83" height="86.17" transform="translate(134.69 -119.5) rotate(14.27)"/><rect class="cls-1" x="444.02" y="478.48" width="13.83" height="86.17" transform="translate(142.51 -95.08) rotate(14.27)"/><rect class="cls-1" x="489.68" y="508.27" width="13.83" height="86.17" transform="translate(151.26 -105.41) rotate(14.27)"/><rect class="cls-1" x="380.86" y="395.14" width="13.83" height="86.17" transform="translate(120.01 -82.08) rotate(14.27)"/><rect class="cls-1" x="426.7" y="256.03" width="13.83" height="86.17" transform="translate(87.13 -97.67) rotate(14.27)"/><rect class="cls-1" x="453.81" y="144.71" width="13.83" height="86.17" transform="translate(60.52 -107.79) rotate(14.27)"/><rect class="cls-1" x="380.86" y="228.06" width="13.83" height="86.17" transform="translate(78.82 -87.23) rotate(14.27)"/><rect class="cls-1" x="343.43" y="92.52" width="13.83" height="86.17" transform="matrix(0.86, -0.51, 0.51, 0.86, -20.1, 198.04)"/><rect class="cls-1" x="405.11" y="98.53" width="13.83" height="86.17" transform="matrix(0.86, -0.51, 0.51, 0.86, -14.52, 230.4)"/><rect class="cls-1" x="419.41" y="243.72" width="13.83" height="86.17" transform="translate(-86.69 258.09) rotate(-30.73)"/><rect class="cls-1" x="466.59" y="215.67" width="13.83" height="86.17" transform="translate(-65.74 278.26) rotate(-30.73)"/><rect class="cls-1" x="531.13" y="236.89" width="13.83" height="86.17" transform="matrix(0.86, -0.51, 0.51, 0.86, -67.52, 314.21)"/><rect class="cls-1" x="495.66" y="333.81" width="13.83" height="86.17" transform="matrix(0.86, -0.51, 0.51, 0.86, -122.02, 309.7)"/><rect class="cls-1" x="549.01" y="322.59" width="13.83" height="86.17" transform="matrix(0.86, -0.51, 0.51, 0.86, -108.8, 335.38)"/><rect class="cls-1" x="392.06" y="319.54" width="13.83" height="86.17" transform="matrix(0.86, -0.51, 0.51, 0.86, -129.27, 254.76)"/><rect class="cls-1" x="326.12" y="188.76" width="13.83" height="86.17" transform="translate(-71.71 202.71) rotate(-30.73)"/><rect class="cls-1" x="266.57" y="90.88" width="13.83" height="86.17" transform="translate(-30.06 158.54) rotate(-30.73)"/><rect class="cls-1" x="273.92" y="201.4" width="13.83" height="86.17" transform="translate(-85.49 177.81) rotate(-30.73)"/><rect class="cls-1" x="191.56" y="204.43" width="13.83" height="86.17" transform="matrix(0.86, -0.51, 0.51, 0.86, -98.6, 136.16)"/><rect class="cls-1" x="253.25" y="210.45" width="13.83" height="86.17" transform="matrix(0.86, -0.51, 0.51, 0.86, -93.02, 168.52)"/><rect class="cls-1" x="267.54" y="355.63" width="13.83" height="86.17" transform="matrix(0.86, -0.51, 0.51, 0.86, -165.19, 196.2)"/><rect class="cls-1" x="314.72" y="327.59" width="13.83" height="86.17" transform="translate(-144.24 216.37) rotate(-30.73)"/><rect class="cls-1" x="379.26" y="348.8" width="13.83" height="86.17" transform="matrix(0.86, -0.51, 0.51, 0.86, -146.02, 252.33)"/><rect class="cls-1" x="343.8" y="445.73" width="13.83" height="86.17" transform="matrix(0.86, -0.51, 0.51, 0.86, -200.52, 247.82)"/><rect class="cls-1" x="397.14" y="434.51" width="13.83" height="86.17" transform="matrix(0.86, -0.51, 0.51, 0.86, -187.3, 273.5)"/><rect class="cls-1" x="240.2" y="431.46" width="13.83" height="86.17" transform="matrix(0.86, -0.51, 0.51, 0.86, -207.78, 192.88)"/><rect class="cls-1" x="174.25" y="300.68" width="13.83" height="86.17" transform="translate(-150.21 140.82) rotate(-30.73)"/><rect class="cls-1" x="114.7" y="202.8" width="13.83" height="86.17" transform="translate(-108.56 96.66) rotate(-30.73)"/><rect class="cls-1" x="122.05" y="313.32" width="13.83" height="86.17" transform="translate(-164 115.93) rotate(-30.73)"/><rect class="cls-1" x="240.93" y="441.73" width="13.83" height="86.17" transform="translate(-283.1 605.48) rotate(-75.73)"/><rect class="cls-1" x="288.8" y="402.36" width="13.83" height="86.17" transform="translate(-208.89 622.22) rotate(-75.73)"/><rect class="cls-1" x="401.57" y="494.92" width="13.83" height="86.17" transform="translate(-213.62 801.24) rotate(-75.73)"/><rect class="cls-1" x="415.1" y="441.73" width="13.83" height="86.17" transform="translate(-151.88 774.27) rotate(-75.73)"/><rect class="cls-1" x="475.74" y="411.09" width="13.83" height="86.17" transform="translate(-76.49 809.95) rotate(-75.73)"/><rect class="cls-1" x="519.2" y="504.7" width="13.83" height="86.17" transform="translate(-134.47 922.61) rotate(-75.73)"/><rect class="cls-1" x="548.99" y="459.05" width="13.83" height="86.17" transform="translate(-67.79 917.08) rotate(-75.73)"/><rect class="cls-1" x="435.86" y="567.87" width="13.83" height="86.17" transform="translate(-258.49 889.43) rotate(-75.73)"/><rect class="cls-1" x="296.75" y="522.03" width="13.83" height="86.17" transform="translate(-318.87 720.07) rotate(-75.73)"/><rect class="cls-1" x="185.43" y="494.92" width="13.83" height="86.17" transform="translate(-376.47 591.77) rotate(-75.73)"/><rect class="cls-1" x="268.78" y="567.87" width="13.83" height="86.17" transform="translate(-384.38 727.51) rotate(-75.73)"/><rect class="cls-1" x="300.42" y="198.99" width="13.83" height="86.17" transform="translate(-3.04 480.24) rotate(-75.73)"/><rect class="cls-1" x="348.3" y="159.63" width="13.83" height="86.17" transform="translate(71.18 496.98) rotate(-75.73)"/><rect class="cls-1" x="461.06" y="252.18" width="13.83" height="86.17" transform="translate(66.45 676) rotate(-75.73)"/><rect class="cls-1" x="474.59" y="198.99" width="13.83" height="86.17" transform="translate(128.19 649.04) rotate(-75.73)"/><rect class="cls-1" x="535.23" y="168.35" width="13.83" height="86.17" transform="translate(203.57 684.72) rotate(-75.73)"/><rect class="cls-1" x="578.69" y="261.97" width="13.83" height="86.17" transform="translate(145.59 797.37) rotate(-75.73)"/><rect class="cls-1" x="608.48" y="216.31" width="13.83" height="86.17" transform="translate(212.28 791.84) rotate(-75.73)"/><rect class="cls-1" x="495.35" y="325.13" width="13.83" height="86.17" transform="translate(21.58 764.19) rotate(-75.73)"/><rect class="cls-1" x="356.24" y="279.29" width="13.83" height="86.17" transform="translate(-38.8 594.84) rotate(-75.73)"/><rect class="cls-1" x="244.92" y="252.18" width="13.83" height="86.17" transform="translate(-96.41 466.53) rotate(-75.73)"/><rect class="cls-1" x="328.27" y="325.13" width="13.83" height="86.17" transform="translate(-104.31 602.27) rotate(-75.73)"/><rect class="cls-1" x="142.5" y="297.17" width="13.83" height="86.17" transform="translate(-217.18 401.17) rotate(-75.73)"/><rect class="cls-1" x="190.37" y="257.81" width="13.83" height="86.17" transform="translate(-142.96 417.91) rotate(-75.73)"/><rect class="cls-1" x="303.14" y="350.36" width="13.83" height="86.17" transform="translate(-147.69 596.93) rotate(-75.73)"/><rect class="cls-1" x="316.67" y="297.17" width="13.83" height="86.17" transform="translate(-85.95 569.96) rotate(-75.73)"/><rect class="cls-1" x="377.31" y="266.53" width="13.83" height="86.17" transform="translate(-10.56 605.64) rotate(-75.73)"/><rect class="cls-1" x="420.77" y="360.15" width="13.83" height="86.17" transform="translate(-68.55 718.3) rotate(-75.73)"/><rect class="cls-1" x="450.55" y="314.49" width="13.83" height="86.17" transform="translate(-1.86 712.77) rotate(-75.73)"/><rect class="cls-1" x="337.42" y="423.31" width="13.83" height="86.17" transform="translate(-192.56 685.12) rotate(-75.73)"/><rect class="cls-1" x="198.31" y="377.47" width="13.83" height="86.17" transform="translate(-252.94 515.76) rotate(-75.73)"/><rect class="cls-1" x="87" y="350.36" width="13.83" height="86.17" transform="translate(-310.54 387.46) rotate(-75.73)"/><rect class="cls-1" x="170.34" y="423.31" width="13.83" height="86.17" transform="translate(-318.45 523.2) rotate(-75.73)"/><rect class="cls-1" x="291.99" y="510.09" width="13.83" height="86.17" transform="translate(-23.88 1092.76) rotate(-120.73)"/><rect class="cls-1" x="298.01" y="448.4" width="13.83" height="86.17" transform="translate(38.23 1004.73) rotate(-120.73)"/><rect class="cls-1" x="443.19" y="434.11" width="13.83" height="86.17" transform="translate(269.88 1107.94) rotate(-120.73)"/><rect class="cls-1" x="415.15" y="386.93" width="13.83" height="86.17" transform="matrix(-0.51, -0.86, 0.86, -0.51, 268.07, 1012.54)"/><rect class="cls-1" x="436.36" y="322.39" width="13.83" height="86.17" transform="matrix(-0.51, -0.86, 0.86, -0.51, 355.6, 933.25)"/><rect class="cls-1" x="533.29" y="357.85" width="13.83" height="86.17" transform="translate(471.57 1070.16) rotate(-120.73)"/><rect class="cls-1" x="522.07" y="304.51" width="13.83" height="86.17" transform="translate(500.47 979.92) rotate(-120.73)"/><rect class="cls-1" x="519.02" y="461.45" width="13.83" height="86.17" transform="translate(360.95 1214.43) rotate(-120.73)"/><rect class="cls-1" x="388.24" y="527.4" width="13.83" height="86.17" transform="translate(106.66 1201.65) rotate(-120.73)"/><rect class="cls-1" x="290.36" y="586.95" width="13.83" height="86.17" transform="translate(-92.42 1207.48) rotate(-120.73)"/><rect class="cls-1" x="400.88" y="579.6" width="13.83" height="86.17" transform="translate(80.89 1291.38) rotate(-120.73)"/><rect class="cls-1" x="244.95" y="280.35" width="13.83" height="86.17" transform="translate(102.53 705.2) rotate(-120.73)"/><rect class="cls-1" x="250.97" y="218.66" width="13.83" height="86.17" transform="translate(164.65 617.17) rotate(-120.73)"/><rect class="cls-1" x="396.16" y="204.37" width="13.83" height="86.17" transform="translate(396.3 720.38) rotate(-120.73)"/><rect class="cls-1" x="368.11" y="157.19" width="13.83" height="86.17" transform="matrix(-0.51, -0.86, 0.86, -0.51, 394.49, 624.98)"/><rect class="cls-1" x="389.32" y="92.65" width="13.83" height="86.17" transform="matrix(-0.51, -0.86, 0.86, -0.51, 482.02, 545.69)"/><rect class="cls-1" x="486.25" y="128.11" width="13.83" height="86.17" transform="translate(597.98 682.6) rotate(-120.73)"/><rect class="cls-1" x="475.03" y="74.77" width="13.83" height="86.17" transform="translate(626.89 592.36) rotate(-120.73)"/><rect class="cls-1" x="471.98" y="231.71" width="13.83" height="86.17" transform="translate(487.37 826.87) rotate(-120.73)"/><rect class="cls-1" x="341.2" y="297.66" width="13.83" height="86.17" transform="translate(233.08 814.09) rotate(-120.73)"/><rect class="cls-1" x="243.32" y="357.21" width="13.83" height="86.17" transform="translate(34 819.92) rotate(-120.73)"/><rect class="cls-1" x="353.84" y="349.86" width="13.83" height="86.17" transform="translate(207.3 903.82) rotate(-120.73)"/><rect class="cls-1" x="118.78" y="250.19" width="13.83" height="86.17" transform="translate(-62.18 551.17) rotate(-120.73)"/><rect class="cls-1" x="124.8" y="188.51" width="13.83" height="86.17" transform="translate(-0.07 463.14) rotate(-120.73)"/><rect class="cls-1" x="269.98" y="174.21" width="13.83" height="86.17" transform="translate(231.58 566.35) rotate(-120.73)"/><rect class="cls-1" x="241.94" y="127.03" width="13.83" height="86.17" transform="matrix(-0.51, -0.86, 0.86, -0.51, 229.77, 470.96)"/><rect class="cls-1" x="263.15" y="62.49" width="13.83" height="86.17" transform="matrix(-0.51, -0.86, 0.86, -0.51, 317.3, 391.67)"/><rect class="cls-1" x="360.08" y="97.96" width="13.83" height="86.17" transform="translate(433.26 528.58) rotate(-120.73)"/><rect class="cls-1" x="348.86" y="44.61" width="13.83" height="86.17" transform="translate(462.17 438.33) rotate(-120.73)"/><rect class="cls-1" x="345.81" y="201.56" width="13.83" height="86.17" transform="translate(322.65 672.85) rotate(-120.73)"/><rect class="cls-1" x="215.03" y="267.5" width="13.83" height="86.17" transform="translate(68.36 660.07) rotate(-120.73)"/><rect class="cls-1" x="117.15" y="327.05" width="13.83" height="86.17" transform="translate(-130.72 665.9) rotate(-120.73)"/><rect class="cls-1" x="227.67" y="319.7" width="13.83" height="86.17" transform="translate(42.58 749.8) rotate(-120.73)"/><rect class="cls-1" x="486.05" y="443.19" width="13.83" height="86.17" transform="translate(850.83 1079.08) rotate(-165.73)"/><rect class="cls-1" x="446.69" y="395.32" width="13.83" height="86.17" transform="translate(785.12 975.11) rotate(-165.73)"/><rect class="cls-1" x="539.24" y="282.55" width="13.83" height="86.17" transform="translate(995.17 775.88) rotate(-165.73)"/><rect class="cls-1" x="486.05" y="269.02" width="13.83" height="86.17" transform="translate(893.77 736.12) rotate(-165.73)"/><rect class="cls-1" x="455.41" y="208.38" width="13.83" height="86.17" transform="translate(848.38 609.16) rotate(-165.73)"/><rect class="cls-1" x="549.03" y="164.92" width="13.83" height="86.17" transform="translate(1043.44 546.66) rotate(-165.73)"/><rect class="cls-1" x="503.38" y="135.14" width="13.83" height="86.17" transform="translate(960.89 476.75) rotate(-165.73)"/><rect class="cls-1" x="612.2" y="248.27" width="13.83" height="86.17" transform="translate(1147.28 726.35) rotate(-165.73)"/><rect class="cls-1" x="566.35" y="387.38" width="13.83" height="86.17" transform="translate(1022.71 988.97) rotate(-165.73)"/><rect class="cls-1" x="539.24" y="498.69" width="13.83" height="86.17" transform="translate(941.89 1201.49) rotate(-165.73)"/><rect class="cls-1" x="612.2" y="415.35" width="13.83" height="86.17" transform="translate(1106.09 1055.35) rotate(-165.73)"/><rect class="cls-1" x="284.88" y="500.66" width="13.83" height="86.17" transform="translate(440.52 1142.64) rotate(-165.73)"/><rect class="cls-1" x="245.51" y="452.79" width="13.83" height="86.17" transform="translate(374.81 1038.67) rotate(-165.73)"/><rect class="cls-1" x="338.07" y="340.02" width="13.83" height="86.17" transform="translate(584.86 839.44) rotate(-165.73)"/><rect class="cls-1" x="284.88" y="326.49" width="13.83" height="86.17" transform="translate(483.46 799.68) rotate(-165.73)"/><rect class="cls-1" x="254.23" y="265.85" width="13.83" height="86.17" transform="translate(438.07 672.72) rotate(-165.73)"/><rect class="cls-1" x="347.85" y="222.39" width="13.83" height="86.17" transform="translate(633.13 610.22) rotate(-165.73)"/><rect class="cls-1" x="302.2" y="192.6" width="13.83" height="86.17" transform="translate(550.58 540.31) rotate(-165.73)"/><rect class="cls-1" x="411.02" y="305.74" width="13.83" height="86.17" transform="translate(736.97 789.92) rotate(-165.73)"/><rect class="cls-1" x="365.18" y="444.84" width="13.83" height="86.17" transform="translate(612.4 1052.53) rotate(-165.73)"/><rect class="cls-1" x="338.07" y="556.16" width="13.83" height="86.17" transform="translate(531.57 1265.05) rotate(-165.73)"/><rect class="cls-1" x="411.02" y="472.82" width="13.83" height="86.17" transform="translate(695.77 1118.92) rotate(-165.73)"/><rect class="cls-1" x="144.83" y="452.77" width="13.83" height="86.17" transform="translate(176.56 1013.81) rotate(-165.73)"/><rect class="cls-1" x="105.47" y="404.89" width="13.83" height="86.17" transform="translate(110.86 909.84) rotate(-165.73)"/><rect class="cls-1" x="198.03" y="292.13" width="13.83" height="86.17" transform="translate(320.91 710.61) rotate(-165.73)"/><rect class="cls-1" x="144.83" y="278.6" width="13.83" height="86.17" transform="translate(219.5 670.84) rotate(-165.73)"/><rect class="cls-1" x="114.19" y="217.96" width="13.83" height="86.17" transform="translate(174.12 543.89) rotate(-165.73)"/><rect class="cls-1" x="207.81" y="174.5" width="13.83" height="86.17" transform="translate(369.18 481.39) rotate(-165.73)"/><rect class="cls-1" x="162.16" y="144.71" width="13.83" height="86.17" transform="translate(286.63 411.48) rotate(-165.73)"/><rect class="cls-1" x="270.98" y="257.84" width="13.83" height="86.17" transform="translate(473.01 661.08) rotate(-165.73)"/><rect class="cls-1" x="225.13" y="396.95" width="13.83" height="86.17" transform="translate(348.45 923.7) rotate(-165.73)"/><rect class="cls-1" x="198.03" y="508.27" width="13.83" height="86.17" transform="translate(267.62 1136.21) rotate(-165.73)"/><rect class="cls-1" x="270.98" y="424.92" width="13.83" height="86.17" transform="translate(431.82 990.08) rotate(-165.73)"/><rect class="cls-1" x="286.41" y="371.84" width="13.83" height="86.17" transform="translate(475.29 889.36) rotate(-165.73)"/><rect class="cls-1" x="247.05" y="323.97" width="13.83" height="86.17" transform="translate(409.59 785.38) rotate(-165.73)"/><rect class="cls-1" x="339.6" y="211.2" width="13.83" height="86.17" transform="translate(619.64 586.15) rotate(-165.73)"/><rect class="cls-1" x="286.41" y="197.67" width="13.83" height="86.17" transform="translate(518.23 546.39) rotate(-165.73)"/><rect class="cls-1" x="255.77" y="137.03" width="13.83" height="86.17" transform="translate(472.85 419.43) rotate(-165.73)"/><rect class="cls-1" x="349.38" y="93.57" width="13.83" height="86.17" transform="translate(667.91 356.93) rotate(-165.73)"/><rect class="cls-1" x="303.73" y="63.78" width="13.83" height="86.17" transform="translate(585.36 287.02) rotate(-165.73)"/><rect class="cls-1" x="412.55" y="176.92" width="13.83" height="86.17" transform="translate(771.74 536.63) rotate(-165.73)"/><rect class="cls-1" x="366.71" y="316.02" width="13.83" height="86.17" transform="translate(647.18 799.25) rotate(-165.73)"/><rect class="cls-1" x="339.6" y="427.34" width="13.83" height="86.17" transform="translate(566.35 1011.76) rotate(-165.73)"/><rect class="cls-1" x="412.55" y="343.99" width="13.83" height="86.17" transform="translate(730.55 865.63) rotate(-165.73)"/><rect class="cls-2" x="364.5" y="185.68" width="13.83" height="86.17" transform="translate(378.3 -207.39) rotate(59.27)"/><rect class="cls-2" x="358.48" y="247.37" width="13.83" height="86.17" transform="translate(428.38 -172.05) rotate(59.27)"/><rect class="cls-2" x="213.3" y="261.66" width="13.83" height="86.17" transform="translate(369.66 -40.26) rotate(59.27)"/><rect class="cls-2" x="241.35" y="308.84" width="13.83" height="86.17" transform="translate(423.93 -41.3) rotate(59.27)"/><rect class="cls-2" x="220.13" y="373.38" width="13.83" height="86.17" transform="translate(469.04 8.5) rotate(59.27)"/><rect class="cls-2" x="123.21" y="337.92" width="13.83" height="86.17" transform="translate(391.15 74.48) rotate(59.27)"/><rect class="cls-2" x="134.42" y="391.26" width="13.83" height="86.17" transform="translate(442.49 90.92) rotate(59.27)"/><rect class="cls-2" x="137.47" y="234.32" width="13.83" height="86.17" transform="translate(309.07 11.55) rotate(59.27)"/><rect class="cls-2" x="268.25" y="168.37" width="13.83" height="86.17" transform="translate(316.34 -133.13) rotate(59.27)"/><rect class="cls-2" x="366.14" y="108.83" width="13.83" height="86.17" transform="translate(313.03 -246.39) rotate(59.27)"/><rect class="cls-2" x="255.62" y="116.17" width="13.83" height="86.17" transform="translate(265.29 -147.79) rotate(59.27)"/><rect class="cls-2" x="545.79" y="359.45" width="13.83" height="86.17" transform="translate(616.33 -278.25) rotate(59.27)"/><rect class="cls-2" x="539.77" y="421.13" width="13.83" height="86.17" transform="translate(666.41 -242.91) rotate(59.27)"/><rect class="cls-2" x="394.59" y="435.43" width="13.83" height="86.17" transform="translate(607.69 -111.12) rotate(59.27)"/><rect class="cls-2" x="422.64" y="482.61" width="13.83" height="86.17" transform="translate(661.97 -112.15) rotate(59.27)"/><rect class="cls-2" x="401.42" y="547.15" width="13.83" height="86.17" transform="translate(707.08 -62.35) rotate(59.27)"/><rect class="cls-2" x="304.5" y="511.69" width="13.83" height="86.17" transform="translate(629.19 3.62) rotate(59.27)"/><rect class="cls-2" x="315.71" y="565.03" width="13.83" height="86.17" transform="translate(680.53 20.07) rotate(59.27)"/><rect class="cls-2" x="318.76" y="408.09" width="13.83" height="86.17" transform="translate(547.11 -59.31) rotate(59.27)"/><rect class="cls-2" x="449.54" y="342.14" width="13.83" height="86.17" transform="translate(554.38 -203.98) rotate(59.27)"/><rect class="cls-2" x="547.43" y="282.59" width="13.83" height="86.17" transform="translate(551.06 -317.24) rotate(59.27)"/><rect class="cls-2" x="436.91" y="289.94" width="13.83" height="86.17" transform="translate(503.33 -218.65) rotate(59.27)"/><rect class="cls-2" x="506.28" y="167.64" width="13.83" height="86.17" transform="translate(67.79 -120.02) rotate(14.27)"/><rect class="cls-2" x="545.64" y="215.51" width="13.83" height="86.17" transform="translate(80.81 -128.25) rotate(14.27)"/><rect class="cls-2" x="453.09" y="328.27" width="13.83" height="86.17" transform="translate(105.76 -101.95) rotate(14.27)"/><rect class="cls-2" x="506.28" y="341.81" width="13.83" height="86.17" transform="translate(110.74 -114.65) rotate(14.27)"/><rect class="cls-2" x="536.92" y="402.44" width="13.83" height="86.17" transform="translate(126.63 -120.33) rotate(14.27)"/><rect class="cls-2" x="443.31" y="445.9" width="13.83" height="86.17" transform="translate(134.46 -95.91) rotate(14.27)"/><rect class="cls-2" x="488.96" y="475.69" width="13.83" height="86.17" transform="translate(143.21 -106.24) rotate(14.27)"/><rect class="cls-2" x="380.14" y="362.56" width="13.83" height="86.17" transform="translate(111.96 -82.9) rotate(14.27)"/><rect class="cls-2" x="425.98" y="223.45" width="13.83" height="86.17" transform="translate(79.08 -98.5) rotate(14.27)"/><rect class="cls-2" x="453.09" y="112.13" width="13.83" height="86.17" transform="translate(52.47 -108.62) rotate(14.27)"/><rect class="cls-2" x="380.14" y="195.48" width="13.83" height="86.17" transform="translate(70.77 -88.06) rotate(14.27)"/><rect class="cls-2" x="319.76" y="139.39" width="13.83" height="86.17" transform="translate(55.07 -74.91) rotate(14.27)"/><rect class="cls-2" x="359.12" y="187.26" width="13.83" height="86.17" transform="translate(68.09 -83.13) rotate(14.27)"/><rect class="cls-2" x="266.57" y="300.02" width="13.83" height="86.17" transform="translate(93.03 -56.84) rotate(14.27)"/><rect class="cls-2" x="319.76" y="313.56" width="13.83" height="86.17" transform="translate(98.01 -69.53) rotate(14.27)"/><rect class="cls-2" x="350.4" y="374.19" width="13.83" height="86.17" transform="translate(113.91 -75.21) rotate(14.27)"/><rect class="cls-2" x="256.78" y="417.65" width="13.83" height="86.17" transform="translate(121.73 -50.79) rotate(14.27)"/><rect class="cls-2" x="302.44" y="447.44" width="13.83" height="86.17" transform="translate(130.49 -61.13) rotate(14.27)"/><rect class="cls-2" x="193.62" y="334.31" width="13.83" height="86.17" transform="translate(99.24 -37.79) rotate(14.27)"/><rect class="cls-2" x="239.46" y="195.2" width="13.83" height="86.17" transform="translate(66.35 -53.39) rotate(14.27)"/><rect class="cls-2" x="266.57" y="83.88" width="13.83" height="86.17" transform="translate(39.75 -63.51) rotate(14.27)"/><rect class="cls-2" x="193.62" y="167.23" width="13.83" height="86.17" transform="translate(58.04 -42.95) rotate(14.27)"/><rect class="cls-2" x="186.88" y="342.09" width="13.83" height="86.17" transform="translate(-169.6 153.09) rotate(-30.73)"/><rect class="cls-2" x="248.56" y="348.11" width="13.83" height="86.17" transform="translate(-164.01 185.45) rotate(-30.73)"/><rect class="cls-2" x="262.85" y="493.29" width="13.83" height="86.17" transform="translate(-236.19 213.14) rotate(-30.73)"/><rect class="cls-2" x="310.03" y="465.25" width="13.83" height="86.17" transform="translate(-215.23 233.31) rotate(-30.73)"/><rect class="cls-2" x="374.58" y="486.46" width="13.83" height="86.17" transform="matrix(0.86, -0.51, 0.51, 0.86, -217.01, 269.26)"/><rect class="cls-2" x="339.11" y="583.39" width="13.83" height="86.17" transform="translate(-271.51 264.75) rotate(-30.73)"/><rect class="cls-2" x="392.46" y="572.17" width="13.83" height="86.17" transform="translate(-258.29 290.43) rotate(-30.73)"/><rect class="cls-2" x="235.51" y="569.12" width="13.83" height="86.17" transform="translate(-278.77 209.81) rotate(-30.73)"/><rect class="cls-2" x="169.56" y="438.34" width="13.83" height="86.17" transform="translate(-221.2 157.76) rotate(-30.73)"/><rect class="cls-2" x="110.02" y="340.46" width="13.83" height="86.17" transform="translate(-179.55 113.59) rotate(-30.73)"/><rect class="cls-2" x="117.37" y="450.97" width="13.83" height="86.17" transform="translate(-234.99 132.86) rotate(-30.73)"/><rect class="cls-2" x="400.58" y="212.51" width="13.83" height="86.17" transform="translate(-73.39 244.09) rotate(-30.73)"/><rect class="cls-2" x="462.27" y="218.53" width="13.83" height="86.17" transform="translate(-67.81 276.45) rotate(-30.73)"/><rect class="cls-2" x="476.56" y="363.72" width="13.83" height="86.17" transform="translate(-139.98 304.14) rotate(-30.73)"/><rect class="cls-2" x="523.74" y="335.67" width="13.83" height="86.17" transform="translate(-119.03 324.31) rotate(-30.73)"/><rect class="cls-2" x="588.29" y="356.88" width="13.83" height="86.17" transform="translate(-120.8 360.26) rotate(-30.73)"/><rect class="cls-2" x="552.82" y="453.81" width="13.83" height="86.17" transform="translate(-175.31 355.75) rotate(-30.73)"/><rect class="cls-2" x="606.16" y="442.59" width="13.83" height="86.17" transform="translate(-162.09 381.43) rotate(-30.73)"/><rect class="cls-2" x="449.22" y="439.54" width="13.83" height="86.17" transform="translate(-182.56 300.81) rotate(-30.73)"/><rect class="cls-2" x="383.27" y="308.76" width="13.83" height="86.17" transform="translate(-125 248.76) rotate(-30.73)"/><rect class="cls-2" x="323.73" y="210.88" width="13.83" height="86.17" transform="translate(-83.34 204.59) rotate(-30.73)"/><rect class="cls-2" x="331.08" y="321.4" width="13.83" height="86.17" transform="translate(-138.78 223.86) rotate(-30.73)"/><rect class="cls-2" x="219.49" y="170.27" width="13.83" height="86.17" transform="translate(-77.23 145.63) rotate(-30.73)"/><rect class="cls-2" x="281.18" y="176.29" width="13.83" height="86.17" transform="translate(-71.64 178) rotate(-30.73)"/><rect class="cls-2" x="295.47" y="321.47" width="13.83" height="86.17" transform="matrix(0.86, -0.51, 0.51, 0.86, -143.82, 205.68)"/><rect class="cls-2" x="342.65" y="293.43" width="13.83" height="86.17" transform="translate(-122.86 225.85) rotate(-30.73)"/><rect class="cls-2" x="407.19" y="314.64" width="13.83" height="86.17" transform="matrix(0.86, -0.51, 0.51, 0.86, -124.64, 261.81)"/><rect class="cls-2" x="371.73" y="411.57" width="13.83" height="86.17" transform="translate(-179.15 257.29) rotate(-30.73)"/><rect class="cls-2" x="425.07" y="400.35" width="13.83" height="86.17" transform="translate(-165.92 282.97) rotate(-30.73)"/><rect class="cls-2" x="268.13" y="397.3" width="13.83" height="86.17" transform="translate(-186.4 202.35) rotate(-30.73)"/><rect class="cls-2" x="202.18" y="266.52" width="13.83" height="86.17" transform="translate(-128.84 150.3) rotate(-30.73)"/><rect class="cls-2" x="142.63" y="168.64" width="13.83" height="86.17" transform="translate(-87.18 106.13) rotate(-30.73)"/><rect class="cls-2" x="149.98" y="279.15" width="13.83" height="86.17" transform="translate(-142.62 125.4) rotate(-30.73)"/><rect class="cls-2" x="174.64" y="426.53" width="13.83" height="86.17" transform="translate(-318.33 529.79) rotate(-75.73)"/><rect class="cls-2" x="222.52" y="387.17" width="13.83" height="86.17" transform="translate(-244.11 546.53) rotate(-75.73)"/><rect class="cls-2" x="335.28" y="479.72" width="13.83" height="86.17" transform="translate(-248.84 725.55) rotate(-75.73)"/><rect class="cls-2" x="348.81" y="426.53" width="13.83" height="86.17" transform="translate(-187.1 698.58) rotate(-75.73)"/><rect class="cls-2" x="409.45" y="395.89" width="13.83" height="86.17" transform="translate(-111.71 734.26) rotate(-75.73)"/><rect class="cls-2" x="452.91" y="489.51" width="13.83" height="86.17" transform="translate(-169.7 846.92) rotate(-75.73)"/><rect class="cls-2" x="482.7" y="443.86" width="13.83" height="86.17" transform="translate(-103.01 841.39) rotate(-75.73)"/><rect class="cls-2" x="369.57" y="552.68" width="13.83" height="86.17" transform="translate(-293.71 813.74) rotate(-75.73)"/><rect class="cls-2" x="230.46" y="506.83" width="13.83" height="86.17" transform="translate(-354.09 644.38) rotate(-75.73)"/><rect class="cls-2" x="119.14" y="479.72" width="13.83" height="86.17" transform="translate(-411.69 516.08) rotate(-75.73)"/><rect class="cls-2" x="202.49" y="552.68" width="13.83" height="86.17" transform="translate(-419.6 651.82) rotate(-75.73)"/><rect class="cls-2" x="303.83" y="230.82" width="13.83" height="86.17" transform="translate(-31.31 507.53) rotate(-75.73)"/><rect class="cls-2" x="351.71" y="191.46" width="13.83" height="86.17" transform="translate(42.9 524.27) rotate(-75.73)"/><rect class="cls-2" x="464.47" y="284.01" width="13.83" height="86.17" transform="translate(38.17 703.29) rotate(-75.73)"/><rect class="cls-2" x="478" y="230.82" width="13.83" height="86.17" transform="translate(99.91 676.33) rotate(-75.73)"/><rect class="cls-2" x="538.64" y="200.18" width="13.83" height="86.17" transform="translate(175.3 712.01) rotate(-75.73)"/><rect class="cls-2" x="582.1" y="293.8" width="13.83" height="86.17" transform="translate(117.32 824.66) rotate(-75.73)"/><rect class="cls-2" x="611.89" y="248.14" width="13.83" height="86.17" transform="translate(184 819.13) rotate(-75.73)"/><rect class="cls-2" x="498.76" y="356.96" width="13.83" height="86.17" transform="translate(-6.7 791.48) rotate(-75.73)"/><rect class="cls-2" x="359.65" y="311.12" width="13.83" height="86.17" transform="translate(-67.08 622.13) rotate(-75.73)"/><rect class="cls-2" x="248.33" y="284.01" width="13.83" height="86.17" transform="translate(-124.68 493.82) rotate(-75.73)"/><rect class="cls-2" x="331.68" y="356.96" width="13.83" height="86.17" transform="translate(-132.59 629.56) rotate(-75.73)"/><rect class="cls-2" x="235.94" y="120.28" width="13.83" height="86.17" transform="translate(24.66 358.45) rotate(-75.73)"/><rect class="cls-2" x="283.81" y="80.92" width="13.83" height="86.17" transform="translate(98.88 375.18) rotate(-75.73)"/><rect class="cls-2" x="396.58" y="173.47" width="13.83" height="86.17" transform="translate(94.14 554.2) rotate(-75.73)"/><rect class="cls-2" x="410.11" y="120.28" width="13.83" height="86.17" transform="translate(155.89 527.24) rotate(-75.73)"/><rect class="cls-2" x="470.75" y="89.64" width="13.83" height="86.17" transform="translate(231.27 562.92) rotate(-75.73)"/><rect class="cls-2" x="514.21" y="183.25" width="13.83" height="86.17" transform="translate(173.29 675.57) rotate(-75.73)"/><rect class="cls-2" x="430.86" y="246.42" width="13.83" height="86.17" transform="translate(49.28 642.39) rotate(-75.73)"/><rect class="cls-2" x="291.76" y="200.58" width="13.83" height="86.17" transform="translate(-11.11 473.04) rotate(-75.73)"/><rect class="cls-2" x="180.44" y="173.47" width="13.83" height="86.17" transform="translate(-68.71 344.73) rotate(-75.73)"/><rect class="cls-2" x="263.78" y="246.42" width="13.83" height="86.17" transform="translate(-76.61 480.47) rotate(-75.73)"/><rect class="cls-2" x="359.17" y="516.45" width="13.83" height="86.17" transform="translate(72.15 1160.12) rotate(-120.73)"/><rect class="cls-2" x="365.19" y="454.77" width="13.83" height="86.17" transform="translate(134.26 1072.09) rotate(-120.73)"/><rect class="cls-2" x="510.37" y="440.47" width="13.83" height="86.17" transform="translate(365.91 1175.3) rotate(-120.73)"/><rect class="cls-2" x="482.33" y="393.29" width="13.83" height="86.17" transform="matrix(-0.51, -0.86, 0.86, -0.51, 364.1, 1079.9)"/><rect class="cls-2" x="503.54" y="328.75" width="13.83" height="86.17" transform="matrix(-0.51, -0.86, 0.86, -0.51, 451.63, 1000.61)"/><rect class="cls-2" x="600.46" y="364.22" width="13.83" height="86.17" transform="translate(567.6 1137.52) rotate(-120.73)"/><rect class="cls-2" x="589.25" y="310.87" width="13.83" height="86.17" transform="translate(596.5 1047.28) rotate(-120.73)"/><rect class="cls-2" x="586.2" y="467.82" width="13.83" height="86.17" transform="translate(456.98 1281.79) rotate(-120.73)"/><rect class="cls-2" x="455.42" y="533.76" width="13.83" height="86.17" transform="translate(202.69 1269.01) rotate(-120.73)"/><rect class="cls-2" x="357.53" y="593.31" width="13.83" height="86.17" transform="translate(3.61 1274.84) rotate(-120.73)"/><rect class="cls-2" x="468.05" y="585.96" width="13.83" height="86.17" transform="translate(176.92 1358.74) rotate(-120.73)"/><rect class="cls-2" x="176.28" y="414.83" width="13.83" height="86.17" transform="translate(-116.84 849.36) rotate(-120.73)"/><rect class="cls-2" x="182.3" y="353.15" width="13.83" height="86.17" transform="translate(-54.72 761.34) rotate(-120.73)"/><rect class="cls-2" x="327.48" y="338.86" width="13.83" height="86.17" transform="matrix(-0.51, -0.86, 0.86, -0.51, 176.93, 864.54)"/><rect class="cls-2" x="299.44" y="291.68" width="13.83" height="86.17" transform="translate(175.11 769.15) rotate(-120.73)"/><rect class="cls-2" x="320.65" y="227.13" width="13.83" height="86.17" transform="translate(262.65 689.86) rotate(-120.73)"/><rect class="cls-2" x="417.57" y="262.6" width="13.83" height="86.17" transform="translate(378.61 826.77) rotate(-120.73)"/><rect class="cls-2" x="406.36" y="209.25" width="13.83" height="86.17" transform="translate(407.52 736.53) rotate(-120.73)"/><rect class="cls-2" x="403.31" y="366.2" width="13.83" height="86.17" transform="translate(268 971.04) rotate(-120.73)"/><rect class="cls-2" x="272.53" y="432.15" width="13.83" height="86.17" transform="translate(13.7 958.26) rotate(-120.73)"/><rect class="cls-2" x="174.64" y="491.69" width="13.83" height="86.17" transform="translate(-185.38 964.09) rotate(-120.73)"/><rect class="cls-2" x="285.16" y="484.34" width="13.83" height="86.17" transform="translate(-12.07 1047.99) rotate(-120.73)"/><rect class="cls-2" x="111.12" y="281.94" width="13.83" height="86.17" transform="translate(-101.05 592.56) rotate(-120.73)"/><rect class="cls-2" x="117.14" y="220.26" width="13.83" height="86.17" transform="translate(-38.94 504.54) rotate(-120.73)"/><rect class="cls-2" x="262.32" y="205.97" width="13.83" height="86.17" transform="translate(192.71 607.74) rotate(-120.73)"/><rect class="cls-2" x="234.28" y="158.79" width="13.83" height="86.17" transform="translate(190.9 512.35) rotate(-120.73)"/><rect class="cls-2" x="255.49" y="94.24" width="13.83" height="86.17" transform="translate(278.43 433.06) rotate(-120.73)"/><rect class="cls-2" x="352.42" y="129.71" width="13.83" height="86.17" transform="translate(394.39 569.97) rotate(-120.73)"/><rect class="cls-2" x="341.2" y="76.36" width="13.83" height="86.17" transform="translate(423.3 479.72) rotate(-120.73)"/><rect class="cls-2" x="338.15" y="233.31" width="13.83" height="86.17" transform="translate(283.78 714.24) rotate(-120.73)"/><rect class="cls-2" x="207.37" y="299.26" width="13.83" height="86.17" transform="translate(29.49 701.46) rotate(-120.73)"/><rect class="cls-2" x="109.49" y="358.8" width="13.83" height="86.17" transform="translate(-169.59 707.29) rotate(-120.73)"/><rect class="cls-2" x="220.01" y="351.45" width="13.83" height="86.17" transform="translate(3.71 791.19) rotate(-120.73)"/><rect class="cls-2" x="268.45" y="324.83" width="13.83" height="86.17" transform="translate(99.8 792.6) rotate(-120.73)"/><rect class="cls-2" x="274.47" y="263.14" width="13.83" height="86.17" transform="translate(161.92 704.58) rotate(-120.73)"/><rect class="cls-2" x="419.65" y="248.85" width="13.83" height="86.17" transform="translate(393.57 807.78) rotate(-120.73)"/><rect class="cls-2" x="391.61" y="201.67" width="13.83" height="86.17" transform="matrix(-0.51, -0.86, 0.86, -0.51, 391.75, 712.39)"/><rect class="cls-2" x="412.82" y="137.13" width="13.83" height="86.17" transform="translate(479.29 633.1) rotate(-120.73)"/><rect class="cls-2" x="509.75" y="172.59" width="13.83" height="86.17" transform="translate(595.25 770.01) rotate(-120.73)"/><rect class="cls-2" x="498.53" y="119.25" width="13.83" height="86.17" transform="translate(624.16 679.76) rotate(-120.73)"/><rect class="cls-2" x="495.48" y="276.19" width="13.83" height="86.17" transform="translate(484.64 914.28) rotate(-120.73)"/><rect class="cls-2" x="364.7" y="342.14" width="13.83" height="86.17" transform="translate(230.35 901.5) rotate(-120.73)"/><rect class="cls-2" x="266.82" y="401.68" width="13.83" height="86.17" transform="translate(31.27 907.33) rotate(-120.73)"/><rect class="cls-2" x="377.34" y="394.33" width="13.83" height="86.17" transform="translate(204.57 991.23) rotate(-120.73)"/></svg>