<svg id="Layer_1" data-name="Layer 1" xmlns="http://www.w3.org/2000/svg" viewBox="0 0 720 720"><defs><style>.cls-1{fill:#e5d3b7;}.cls-2{fill:#9b8579;}</style></defs><title>pizzagraphics</title><path class="cls-1" d="M251.65,216s-9.83,3.28-23.71-11.32c-2.26-2.37-12.23,31.73-15.47,30.19l-19.27-9.2c-2.58-1.23,17-30.41,14.41-30.69-25.69-2.81-22-10.51-22-10.51C194.3,166.2,214,163,232.23,171.69S260.36,197.73,251.65,216Z"/><path class="cls-2" d="M207.61,194.95S203.06,184,190,190.73C190,190.73,199.52,194.85,207.61,194.95Z"/><path class="cls-2" d="M242.18,214.9s-9.31-4.23-14.49-10.46c0,0,11.46-3.9,14.49,10.46"/><path class="cls-1" d="M406.93,136.21s-6.88,7.75-26.2,2c-3.14-.93,5.26,33.6,1.69,33.88l-21.29,1.66c-2.85.22-.45-34.84-2.85-33.79-23.66,10.4-24.32,1.9-24.32,1.9-1.57-20.15,13.88-32.77,34-34.35S405.36,116.06,406.93,136.21Z"/><path class="cls-2" d="M358.28,140s-9.39-7.17-17.37,5.15C340.9,145.16,351.21,144,358.28,140Z"/><path class="cls-2" d="M398.19,140s-10.18,1-17.77-1.82c0,0,8-9.11,17.77,1.82"/><path class="cls-1" d="M545.42,243.82s-6,8.45-25.82,4.88c-3.22-.58,8.88,32.83,5.36,33.49l-21,4c-2.81.53-4.24-34.59-6.51-33.28-22.39,12.91-24,4.53-24,4.53-3.76-19.86,10.23-34.09,30.09-37.84S541.67,224,545.42,243.82Z"/><path class="cls-2" d="M497.47,252.89s-10.11-6.1-16.71,7C480.76,259.9,490.88,257.59,497.47,252.89Z"/><path class="cls-2" d="M537.15,248.56s-10,2.1-17.87.12c0,0,6.94-9.92,17.87-.12"/><path class="cls-1" d="M338.45,284.18s5.33-8.89,25.37-6.84c3.26.33-11.37-32.05-7.9-33l20.62-5.56c2.76-.74,6.87,34.16,9,32.68,21.34-14.59,23.56-6.35,23.56-6.35,5.26,19.52-7.6,34.77-27.11,40S343.71,303.69,338.45,284.18Z"/><path class="cls-2" d="M385.57,271.47s10.55,5.31,16.13-8.26C401.69,263.21,391.78,266.28,385.57,271.47Z"/><path class="cls-2" d="M346.34,278.82s9.82-2.85,17.8-1.49c0,0-6.16,10.42-17.8,1.49"/><path class="cls-1" d="M240.86,313.86s-2.07,10.15-21.64,14.9c-3.18.77,21.39,26.44,18.44,28.47l-17.59,12.11c-2.36,1.62-17.85-29.92-19.4-27.81-15.26,20.86-20.1,13.83-20.1,13.83-11.46-16.65-4.41-35.31,12.24-46.77S229.4,297.21,240.86,313.86Z"/><path class="cls-2" d="M200.66,341.53s-11.72-1.5-12.45,13.16C188.21,354.69,196.53,348.49,200.66,341.53Z"/><path class="cls-2" d="M235.2,321.53s-8.31,6-16.29,7.33c0,0,2.34-11.88,16.29-7.33"/><path class="cls-1" d="M502.37,428.61s-7.94-6.65-2.79-26.13c.84-3.17-33.43,6.22-33.81,2.66l-2.27-21.24c-.3-2.84,34.81-1.45,33.69-3.82-11.07-23.35-2.59-24.26-2.59-24.26,20.1-2.15,33.15,12.93,35.3,33S522.47,426.46,502.37,428.61Z"/><path class="cls-2" d="M497.18,380.09s6.89-9.59-5.64-17.22C491.54,362.87,493,373.14,497.18,380.09Z"/><path class="cls-2" d="M498.31,420s-1.29-10.15,1.31-17.82c0,0,9.33,7.71-1.31,17.82"/><path class="cls-1" d="M488.91,470.33s9.78-3.43,23.88,11c2.29,2.34,11.75-31.91,15-30.42l19.41,8.9c2.6,1.19-16.55,30.66-13.94,30.91,25.73,2.42,22.18,10.17,22.18,10.17C547,519.22,527.38,522.73,509,514.3S480.49,488.7,488.91,470.33Z"/><path class="cls-2" d="M533.27,490.68s4.72,10.83,17.68,4C551,494.63,541.37,490.66,533.27,490.68Z"/><path class="cls-2" d="M498.4,471.26s9.38,4.08,14.64,10.23c0,0-11.4,4.08-14.64-10.23"/><path class="cls-1" d="M335.91,390.05s8.37,6.11,4.54,25.88c-.62,3.21,32.94-8.45,33.56-4.92l3.69,21c.49,2.82-34.64,3.78-33.36,6.07,12.62,22.56,4.22,24,4.22,24-19.91,3.49-33.95-10.68-37.44-30.59S316,393.55,335.91,390.05Z"/><path class="cls-2" d="M344.35,438.12s-6.24,10,6.79,16.8C351.13,454.92,349,444.78,344.35,438.12Z"/><path class="cls-2" d="M340.54,398.39s2,10-.11,17.87c0,0-9.83-7.07.11-17.87"/><path class="cls-1" d="M151.68,438.16S162,437.91,171,455.93c1.46,2.93,21-26.75,23.64-24.32l15.73,14.45c2.11,1.93-25.19,24.08-22.78,25.12,23.74,10.22,18,16.5,18,16.5-13.67,14.89-33.44,12.18-48.33-1.49S138,453,151.68,438.16Z"/><path class="cls-2" d="M187.62,471.17s1.16,11.76,15.61,9.2C203.23,480.38,195.33,473.64,187.62,471.17Z"/><path class="cls-2" d="M160.42,442s7.67,6.77,10.78,14.25c0,0-12.1.37-10.78-14.25"/><path class="cls-1" d="M234.11,534.28s6.14-8.35,25.9-4.44c3.21.64-8.32-33-4.78-33.58l21-3.61c2.82-.48,3.64,34.65,5.94,33.38,22.61-12.53,24-4.12,24-4.12,3.41,19.92-10.81,33.9-30.74,37.32S237.52,554.2,234.11,534.28Z"/><path class="cls-2" d="M282.21,526s10,6.28,16.83-6.72C299,519.32,288.88,521.45,282.21,526Z"/><path class="cls-2" d="M242.46,529.69s10-1.92,17.87.18c0,0-7.11,9.8-17.87-.18"/><path class="cls-1" d="M424.35,562.78s8.09,6.47,3.39,26.06c-.76,3.18,33.28-7,33.75-3.43l2.76,21.18c.37,2.84-34.77,2.25-33.59,4.59,11.61,23.09,3.15,24.19,3.15,24.19-20,2.61-33.44-12.17-36.05-32.21S404.31,565.39,424.35,562.78Z"/><path class="cls-2" d="M430.65,611.17s-6.67,9.75,6,17.08C436.69,628.26,435,618,430.65,611.17Z"/><path class="cls-2" d="M428.6,571.31s1.52,10.12-.9,17.84c0,0-9.51-7.5.9-17.84"/></svg>