<svg id="Layer_1" data-name="Layer 1" xmlns="http://www.w3.org/2000/svg" viewBox="0 0 720 720"><defs><style>.cls-1{fill:#594a42;}</style></defs><title>pizzagraphics</title><g id="_Group_" data-name="&lt;Group&gt;"><path class="cls-1" d="M282.58,140.42a26.32,26.32,0,1,1-26.32,26.32A26.31,26.31,0,0,1,282.58,140.42Zm13.53,26.32a13.53,13.53,0,1,0-13.53,13.52A13.53,13.53,0,0,0,296.11,166.74Z"/></g><g id="_Group_2" data-name="&lt;Group&gt;"><path class="cls-1" d="M429.95,140.42a26.32,26.32,0,1,1-26.32,26.32A26.31,26.31,0,0,1,429.95,140.42Zm13.53,26.32a13.53,13.53,0,1,0-13.53,13.52A13.53,13.53,0,0,0,443.48,166.74Z"/></g><g id="_Group_3" data-name="&lt;Group&gt;"><path class="cls-1" d="M343.63,237.11a26.32,26.32,0,1,1-26.32,26.32A26.31,26.31,0,0,1,343.63,237.11Zm13.53,26.32a13.53,13.53,0,1,0-13.53,13.52A13.53,13.53,0,0,0,357.16,263.43Z"/></g><g id="_Group_4" data-name="&lt;Group&gt;"><path class="cls-1" d="M539.42,216.44a26.32,26.32,0,1,1-26.32,26.32A26.31,26.31,0,0,1,539.42,216.44ZM553,242.76a13.53,13.53,0,1,0-13.53,13.52A13.53,13.53,0,0,0,553,242.76Z"/></g><g id="_Group_5" data-name="&lt;Group&gt;"><path class="cls-1" d="M172.05,227.15a26.32,26.32,0,1,1-26.32,26.32A26.31,26.31,0,0,1,172.05,227.15Zm13.53,26.32A13.53,13.53,0,1,0,172.05,267,13.53,13.53,0,0,0,185.58,253.47Z"/></g><g id="_Group_6" data-name="&lt;Group&gt;"><path class="cls-1" d="M119.42,333.14A26.32,26.32,0,1,1,93.1,359.46,26.31,26.31,0,0,1,119.42,333.14ZM133,359.46A13.53,13.53,0,1,0,119.42,373,13.53,13.53,0,0,0,133,359.46Z"/></g><g id="_Group_7" data-name="&lt;Group&gt;"><path class="cls-1" d="M206.79,424.42a26.32,26.32,0,1,1-26.32,26.32A26.31,26.31,0,0,1,206.79,424.42Zm13.53,26.32a13.53,13.53,0,1,0-13.53,13.52A13.53,13.53,0,0,0,220.32,450.74Z"/></g><g id="_Group_8" data-name="&lt;Group&gt;"><path class="cls-1" d="M291,520.58a26.32,26.32,0,1,1-26.32,26.32A26.31,26.31,0,0,1,291,520.58Zm13.53,26.32A13.53,13.53,0,1,0,291,560.42,13.53,13.53,0,0,0,304.53,546.9Z"/></g><g id="_Group_9" data-name="&lt;Group&gt;"><path class="cls-1" d="M282.58,338.4a26.32,26.32,0,1,1-26.32,26.32A26.31,26.31,0,0,1,282.58,338.4Zm13.53,26.32a13.53,13.53,0,1,0-13.53,13.52A13.53,13.53,0,0,0,296.11,364.72Z"/></g><g id="_Group_10" data-name="&lt;Group&gt;"><path class="cls-1" d="M383.21,418.66A26.32,26.32,0,1,1,356.89,445,26.31,26.31,0,0,1,383.21,418.66ZM396.74,445a13.53,13.53,0,1,0-13.53,13.52A13.53,13.53,0,0,0,396.74,445Z"/></g><g id="_Group_11" data-name="&lt;Group&gt;"><path class="cls-1" d="M466.79,520.58a26.32,26.32,0,1,1-26.32,26.32A26.31,26.31,0,0,1,466.79,520.58Zm13.53,26.32a13.53,13.53,0,1,0-13.53,13.52A13.53,13.53,0,0,0,480.32,546.9Z"/></g><g id="_Group_12" data-name="&lt;Group&gt;"><path class="cls-1" d="M473.11,338.4a26.32,26.32,0,1,1-26.32,26.32A26.31,26.31,0,0,1,473.11,338.4Zm13.53,26.32a13.53,13.53,0,1,0-13.53,13.52A13.53,13.53,0,0,0,486.64,364.72Z"/></g><g id="_Group_13" data-name="&lt;Group&gt;"><path class="cls-1" d="M548.9,424.42a26.32,26.32,0,1,1-26.32,26.32A26.31,26.31,0,0,1,548.9,424.42Zm13.53,26.32a13.53,13.53,0,1,0-13.53,13.52A13.53,13.53,0,0,0,562.43,450.74Z"/></g><g id="_Group_14" data-name="&lt;Group&gt;"><path class="cls-1" d="M617.32,333.69A26.32,26.32,0,1,1,591,360,26.31,26.31,0,0,1,617.32,333.69ZM630.85,360a13.53,13.53,0,1,0-13.53,13.52A13.53,13.53,0,0,0,630.85,360Z"/></g></svg>