<svg id="Layer_1" data-name="Layer 1" xmlns="http://www.w3.org/2000/svg" viewBox="0 0 720 720"><defs><style>.cls-1{fill:#d25b46;}.cls-2{fill:#6b4b2c;}.cls-3{fill:#fed5b0;}</style></defs><title>pizzagraphics</title><circle class="cls-1" cx="251.89" cy="171.2" r="55.32"/><circle class="cls-2" cx="224.49" cy="163.05" r="3.53"/><circle class="cls-2" cx="245.25" cy="183" r="3.53"/><circle class="cls-2" cx="262.15" cy="140.08" r="3.53"/><circle class="cls-2" cx="288.56" cy="167.67" r="3.53"/><circle class="cls-2" cx="269.21" cy="203.08" r="3.53"/><circle class="cls-2" cx="224.49" cy="190.06" r="3.53"/><circle class="cls-3" cx="234.92" cy="136.55" r="3.53"/><circle class="cls-3" cx="215.36" cy="171.2" r="3.53"/><circle class="cls-3" cx="255.42" cy="160.61" r="3.53"/><circle class="cls-3" cx="241.72" cy="203.08" r="3.53"/><circle class="cls-3" cx="269.21" cy="183" r="3.53"/><circle class="cls-3" cx="281.5" cy="149.37" r="3.53"/><circle class="cls-1" cx="452.69" cy="167.67" r="55.32"/><circle class="cls-2" cx="425.29" cy="159.52" r="3.53"/><circle class="cls-2" cx="446.04" cy="179.47" r="3.53"/><circle class="cls-2" cx="462.94" cy="136.55" r="3.53"/><circle class="cls-2" cx="489.36" cy="164.14" r="3.53"/><circle class="cls-2" cx="470" cy="199.55" r="3.53"/><circle class="cls-2" cx="425.29" cy="186.53" r="3.53"/><circle class="cls-3" cx="435.72" cy="133.02" r="3.53"/><circle class="cls-3" cx="416.15" cy="167.67" r="3.53"/><circle class="cls-3" cx="456.22" cy="157.08" r="3.53"/><circle class="cls-3" cx="442.51" cy="199.55" r="3.53"/><circle class="cls-3" cx="470" cy="179.47" r="3.53"/><circle class="cls-3" cx="482.3" cy="145.84" r="3.53"/><circle class="cls-1" cx="577.62" cy="298.08" r="55.32"/><circle class="cls-2" cx="550.22" cy="289.93" r="3.53"/><circle class="cls-2" cx="570.98" cy="309.88" r="3.53"/><circle class="cls-2" cx="587.87" cy="266.95" r="3.53"/><circle class="cls-2" cx="614.29" cy="294.55" r="3.53"/><circle class="cls-2" cx="594.93" cy="329.96" r="3.53"/><circle class="cls-2" cx="550.22" cy="316.94" r="3.53"/><circle class="cls-3" cx="560.65" cy="263.42" r="3.53"/><circle class="cls-3" cx="541.08" cy="298.08" r="3.53"/><circle class="cls-3" cx="581.15" cy="287.49" r="3.53"/><circle class="cls-3" cx="567.45" cy="329.96" r="3.53"/><circle class="cls-3" cx="594.93" cy="309.88" r="3.53"/><circle class="cls-3" cx="607.23" cy="276.25" r="3.53"/><circle class="cls-1" cx="141.32" cy="302.69" r="55.32"/><circle class="cls-2" cx="113.92" cy="294.55" r="3.53"/><circle class="cls-2" cx="134.68" cy="314.5" r="3.53"/><circle class="cls-2" cx="151.58" cy="271.57" r="3.53"/><circle class="cls-2" cx="177.99" cy="299.16" r="3.53"/><circle class="cls-2" cx="158.64" cy="334.58" r="3.53"/><circle class="cls-2" cx="113.92" cy="321.56" r="3.53"/><circle class="cls-3" cx="124.35" cy="268.04" r="3.53"/><circle class="cls-3" cx="104.79" cy="302.69" r="3.53"/><circle class="cls-3" cx="144.85" cy="292.1" r="3.53"/><circle class="cls-3" cx="131.15" cy="334.58" r="3.53"/><circle class="cls-3" cx="158.64" cy="314.5" r="3.53"/><circle class="cls-3" cx="170.93" cy="280.87" r="3.53"/><circle class="cls-1" cx="145.49" cy="444.77" r="55.32"/><circle class="cls-2" cx="118.09" cy="436.62" r="3.53"/><circle class="cls-2" cx="138.85" cy="456.58" r="3.53"/><circle class="cls-2" cx="155.75" cy="413.65" r="3.53"/><circle class="cls-2" cx="182.16" cy="441.24" r="3.53"/><circle class="cls-2" cx="162.81" cy="476.65" r="3.53"/><circle class="cls-2" cx="118.09" cy="463.63" r="3.53"/><circle class="cls-3" cx="128.52" cy="410.12" r="3.53"/><circle class="cls-3" cx="108.96" cy="444.77" r="3.53"/><circle class="cls-3" cx="149.02" cy="434.18" r="3.53"/><circle class="cls-3" cx="135.32" cy="476.65" r="3.53"/><circle class="cls-3" cx="162.81" cy="456.58" r="3.53"/><circle class="cls-3" cx="175.1" cy="422.95" r="3.53"/><circle class="cls-1" cx="272.74" cy="579.18" r="55.32"/><circle class="cls-2" cx="245.34" cy="571.04" r="3.53"/><circle class="cls-2" cx="266.09" cy="590.99" r="3.53"/><circle class="cls-2" cx="282.99" cy="548.06" r="3.53"/><circle class="cls-2" cx="309.41" cy="575.65" r="3.53"/><circle class="cls-2" cx="290.05" cy="611.07" r="3.53"/><circle class="cls-2" cx="245.34" cy="598.05" r="3.53"/><circle class="cls-3" cx="255.76" cy="544.53" r="3.53"/><circle class="cls-3" cx="236.2" cy="579.18" r="3.53"/><circle class="cls-3" cx="276.27" cy="568.59" r="3.53"/><circle class="cls-3" cx="262.56" cy="611.07" r="3.53"/><circle class="cls-3" cx="290.05" cy="590.99" r="3.53"/><circle class="cls-3" cx="302.35" cy="557.36" r="3.53"/><circle class="cls-1" cx="449.57" cy="583.79" r="55.32"/><circle class="cls-2" cx="422.17" cy="575.65" r="3.53"/><circle class="cls-2" cx="442.93" cy="595.6" r="3.53"/><circle class="cls-2" cx="459.82" cy="552.67" r="3.53"/><circle class="cls-2" cx="486.24" cy="580.26" r="3.53"/><circle class="cls-2" cx="466.88" cy="615.68" r="3.53"/><circle class="cls-2" cx="422.17" cy="602.66" r="3.53"/><circle class="cls-3" cx="432.6" cy="549.14" r="3.53"/><circle class="cls-3" cx="413.03" cy="583.79" r="3.53"/><circle class="cls-3" cx="453.1" cy="573.2" r="3.53"/><circle class="cls-3" cx="439.4" cy="615.68" r="3.53"/><circle class="cls-3" cx="466.88" cy="595.6" r="3.53"/><circle class="cls-3" cx="479.18" cy="561.97" r="3.53"/><circle class="cls-1" cx="570.98" cy="472.56" r="55.32"/><circle class="cls-2" cx="543.58" cy="464.42" r="3.53"/><circle class="cls-2" cx="564.33" cy="484.37" r="3.53"/><circle class="cls-2" cx="581.23" cy="441.44" r="3.53"/><circle class="cls-2" cx="607.65" cy="469.03" r="3.53"/><circle class="cls-2" cx="588.29" cy="504.45" r="3.53"/><circle class="cls-2" cx="543.58" cy="491.43" r="3.53"/><circle class="cls-3" cx="554" cy="437.91" r="3.53"/><circle class="cls-3" cx="534.44" cy="472.56" r="3.53"/><circle class="cls-3" cx="574.51" cy="461.97" r="3.53"/><circle class="cls-3" cx="560.8" cy="504.45" r="3.53"/><circle class="cls-3" cx="588.29" cy="484.37" r="3.53"/><circle class="cls-3" cx="600.59" cy="450.74" r="3.53"/><circle class="cls-1" cx="428.82" cy="300.89" r="55.32"/><circle class="cls-2" cx="401.42" cy="292.75" r="3.53"/><circle class="cls-2" cx="422.17" cy="312.7" r="3.53"/><circle class="cls-2" cx="439.07" cy="269.77" r="3.53"/><circle class="cls-2" cx="465.49" cy="297.36" r="3.53"/><circle class="cls-2" cx="446.13" cy="332.78" r="3.53"/><circle class="cls-2" cx="401.42" cy="319.76" r="3.53"/><circle class="cls-3" cx="411.85" cy="266.24" r="3.53"/><circle class="cls-3" cx="392.28" cy="300.89" r="3.53"/><circle class="cls-3" cx="432.35" cy="290.31" r="3.53"/><circle class="cls-3" cx="418.64" cy="332.78" r="3.53"/><circle class="cls-3" cx="446.13" cy="312.7" r="3.53"/><circle class="cls-3" cx="458.43" cy="279.07" r="3.53"/><circle class="cls-1" cx="288.56" cy="300.89" r="55.32"/><circle class="cls-2" cx="261.16" cy="292.75" r="3.53"/><circle class="cls-2" cx="281.92" cy="312.7" r="3.53"/><circle class="cls-2" cx="298.82" cy="269.77" r="3.53"/><circle class="cls-2" cx="325.23" cy="297.36" r="3.53"/><circle class="cls-2" cx="305.88" cy="332.78" r="3.53"/><circle class="cls-2" cx="261.16" cy="319.76" r="3.53"/><circle class="cls-3" cx="271.59" cy="266.24" r="3.53"/><circle class="cls-3" cx="252.03" cy="300.89" r="3.53"/><circle class="cls-3" cx="292.09" cy="290.31" r="3.53"/><circle class="cls-3" cx="278.39" cy="332.78" r="3.53"/><circle class="cls-3" cx="305.88" cy="312.7" r="3.53"/><circle class="cls-3" cx="318.17" cy="279.07" r="3.53"/><circle class="cls-1" cx="282.99" cy="432.75" r="55.32"/><circle class="cls-2" cx="255.59" cy="424.6" r="3.53"/><circle class="cls-2" cx="276.34" cy="444.55" r="3.53"/><circle class="cls-2" cx="293.24" cy="401.62" r="3.53"/><circle class="cls-2" cx="319.66" cy="429.22" r="3.53"/><circle class="cls-2" cx="300.3" cy="464.63" r="3.53"/><circle class="cls-2" cx="255.59" cy="451.61" r="3.53"/><circle class="cls-3" cx="266.02" cy="398.1" r="3.53"/><circle class="cls-3" cx="246.45" cy="432.75" r="3.53"/><circle class="cls-3" cx="286.52" cy="422.16" r="3.53"/><circle class="cls-3" cx="272.82" cy="464.63" r="3.53"/><circle class="cls-3" cx="300.3" cy="444.55" r="3.53"/><circle class="cls-3" cx="312.6" cy="410.92" r="3.53"/><circle class="cls-1" cx="420.73" cy="436.77" r="55.32"/><circle class="cls-2" cx="393.33" cy="428.63" r="3.53"/><circle class="cls-2" cx="414.08" cy="448.58" r="3.53"/><circle class="cls-2" cx="430.98" cy="405.65" r="3.53"/><circle class="cls-2" cx="457.4" cy="433.24" r="3.53"/><circle class="cls-2" cx="438.04" cy="468.66" r="3.53"/><circle class="cls-2" cx="393.33" cy="455.64" r="3.53"/><circle class="cls-3" cx="403.75" cy="402.12" r="3.53"/><circle class="cls-3" cx="384.19" cy="436.77" r="3.53"/><circle class="cls-3" cx="424.26" cy="426.18" r="3.53"/><circle class="cls-3" cx="410.55" cy="468.66" r="3.53"/><circle class="cls-3" cx="438.04" cy="448.58" r="3.53"/><circle class="cls-3" cx="450.34" cy="414.95" r="3.53"/></svg>