<svg id="Layer_1" data-name="Layer 1" xmlns="http://www.w3.org/2000/svg" viewBox="0 0 720 720"><defs><style>.cls-1{fill:#cf3423;}</style></defs><title>pizzagraphics</title><path class="cls-1" d="M669.26,359.45c0,43.55-19.15,67.87-25.48,122.47-5.43,46.83-37.59,100.89-82.94,111.27-46.9,10.73-78.58,52.52-125.64,63.87-23.12,5.58-31.9-3.14-72.09,8.54-42.51,12.36-96.37,4.46-124.35-26.31-31.2-34.31-81.25-35.13-100.17-71.71-17-32.94-22.14-72.62-67.86-117.09-21.59-21-29.62-63.58-13.76-91C88.4,305,67.33,268.83,85.9,229.35c16.67-35.45,50.72-59.09,68.23-93.63C175.64,93.28,209.61,92.11,242.36,78c37-15.92,78.85-15.6,120.75-24.73C413.94,42.22,454.33,52,485.29,78.66c46.73,40.16,71,39.88,98.82,68.94,33.7,35.14,35.14,94.62,73,126.34C678.82,292.08,669.26,329.77,669.26,359.45Z"/></svg>