<svg id="Layer_1" data-name="Layer 1" xmlns="http://www.w3.org/2000/svg" viewBox="0 0 2048 1536"><defs><style>.cls-1{fill:#ffbd39;}.cls-2{fill:#049cbf;}.cls-3{fill:#036c8c;}.cls-4{fill:#29abe2;}.cls-5{fill:#00aeef;}.cls-6{font-size:100px;fill:#fff;font-family:GothamXNarrow-Bold, Gotham XNarrow;font-weight:700;}.cls-7{letter-spacing:0em;}.cls-8{letter-spacing:-0.03em;}</style></defs><title>welcome_banner</title><rect class="cls-1" width="1559" height="1536"/><polygon class="cls-2" points="1160 320 1360 320 1300 240 1360 160 1160 160 1160 320"/><polygon class="cls-3" points="1220 257 1160 320 1160 257 1220 257"/><polygon class="cls-2" points="400 320 200 320 260 240 200 160 400 160 400 320"/><rect class="cls-4" x="1558.5" width="490" height="1535.5"/><rect class="cls-5" x="340" y="100" width="880" height="157"/><polygon class="cls-3" points="340 257 400 320 400 257 340 257"/><text class="cls-6" transform="translate(430.95 215.4)">BUILD<tspan class="cls-7" x="227.7" y="0"> </tspan><tspan class="cls-8" x="245.7" y="0">Y</tspan><tspan x="292.8" y="0">OUR PI</tspan><tspan class="cls-7" x="548.99" y="0">Z</tspan><tspan x="596.19" y="0">ZA</tspan></text></svg>