<svg id="Layer_1" data-name="Layer 1" xmlns="http://www.w3.org/2000/svg" viewBox="0 0 2048 1536"><defs><style>.cls-1{fill:#ffbd39;}.cls-18,.cls-2{fill:#049cbf;}.cls-3{fill:#036c8c;}.cls-4{fill:#00aeef;}.cls-18,.cls-5{font-size:142.67px;font-family:GothamXNarrow-Bold, Gotham XNarrow;font-weight:700;}.cls-5{fill:#fff;}.cls-6{letter-spacing:-0.01em;}.cls-7{letter-spacing:-0.02em;}.cls-8{fill:#fbe3a9;}.cls-9{fill:#fce9c0;}.cls-10{fill:#cf3423;}.cls-11{fill:#fff197;}.cls-12{fill:#fffbcc;}.cls-13{fill:#d25b46;}.cls-14{fill:#6b4b2c;}.cls-15{fill:#fed5b0;}.cls-16{fill:#e5d3b7;}.cls-17{fill:#9b8579;}.cls-19{letter-spacing:0em;}</style></defs><title>welcome_banner</title><rect class="cls-1" width="2048" height="1536"/><polygon class="cls-2" points="1569.65 413.88 1855 413.88 1769.4 299.74 1855 185.6 1569.65 185.6 1569.65 413.88"/><polygon class="cls-3" points="1655.26 324 1569.65 413.88 1569.65 324 1655.26 324"/><polygon class="cls-2" points="485.35 413.88 200 413.88 285.6 299.74 200 185.6 485.35 185.6 485.35 413.88"/><rect class="cls-4" x="399.74" y="100" width="1255.52" height="224"/><polygon class="cls-3" points="399.74 324 485.35 413.88 485.35 324 399.74 324"/><text class="cls-5" transform="translate(671.82 264.64)">WELCOM<tspan class="cls-6" x="478.38" y="0">E</tspan><tspan x="542.58" y="0"> </tspan><tspan class="cls-7" x="568.83" y="0">T</tspan><tspan x="628.75" y="0">O</tspan></text><circle class="cls-8" cx="1020.5" cy="872.96" r="360"/><path class="cls-9" d="M1326.65,873c0,43.55-19.15,67.87-25.48,122.47-5.43,46.83-37.59,100.89-82.94,111.27-46.9,10.73-78.58,52.52-125.64,63.87-23.12,5.58-31.9-3.14-72.09,8.54-42.51,12.36-96.37,4.46-124.35-26.31-31.2-34.31-81.25-35.13-100.17-71.71-17-32.94-22.14-72.62-67.86-117.09-21.62-21-29.62-63.58-13.77-91,31.45-54.47,10.38-90.62,28.94-130.11C760,707.4,794,683.76,811.52,649.22,833,606.78,867,605.61,899.75,591.53c37-15.9,78.86-15.57,120.75-24.72,50.83-11.09,91.22-1.25,122.18,25.35,46.73,40.16,71,39.88,98.82,68.94,33.7,35.14,35.14,94.62,73,126.34C1336.22,805.59,1326.65,843.28,1326.65,873Z"/><path class="cls-10" d="M1330.4,872.61c0,43.55-19.15,67.87-25.48,122.47-5.43,46.83-37.59,100.89-82.94,111.27-46.9,10.73-78.58,52.52-125.64,63.87-23.12,5.58-31.9-3.14-72.09,8.54-42.51,12.36-96.37,4.46-124.35-26.31-31.2-34.31-81.25-35.13-100.17-71.71-17-32.94-22.14-72.62-67.86-117.09-21.59-21-29.62-63.58-13.76-91C749.54,818.16,728.47,782,747,742.51c16.67-35.45,50.72-59.09,68.23-93.63,21.51-42.44,55.48-43.61,88.23-57.72,37-15.92,78.85-15.6,120.75-24.73,50.83-11,91.22-1.27,122.18,25.39,46.73,40.16,71,39.88,98.82,68.94,33.7,35.14,35.14,94.62,73,126.34C1340,805.24,1330.4,842.93,1330.4,872.61Z"/><rect class="cls-11" x="888.36" y="748.91" width="86.17" height="13.83" transform="translate(-30.65 1472.23) rotate(-75.73)"/><rect class="cls-11" x="927.73" y="796.77" width="86.17" height="13.83" transform="translate(-47.38 1546.44) rotate(-75.73)"/><rect class="cls-11" x="835.17" y="909.55" width="86.17" height="13.83" transform="translate(-226.42 1541.72) rotate(-75.73)"/><rect class="cls-11" x="888.37" y="923.09" width="86.17" height="13.83" transform="translate(-199.45 1603.48) rotate(-75.73)"/><rect class="cls-11" x="919.02" y="983.72" width="86.17" height="13.83" transform="translate(-235.11 1678.87) rotate(-75.73)"/><rect class="cls-11" x="825.39" y="1027.19" width="86.17" height="13.83" transform="translate(-347.79 1620.89) rotate(-75.73)"/><rect class="cls-11" x="871.04" y="1056.97" width="86.17" height="13.83" transform="translate(-342.26 1687.57) rotate(-75.73)"/><rect class="cls-11" x="762.22" y="943.84" width="86.17" height="13.83" transform="translate(-314.62 1496.86) rotate(-75.73)"/><rect class="cls-11" x="808.06" y="804.73" width="86.17" height="13.83" transform="translate(-145.26 1436.47) rotate(-75.73)"/><rect class="cls-11" x="835.15" y="693.41" width="86.17" height="13.83" transform="translate(-16.96 1378.84) rotate(-75.73)"/><rect class="cls-11" x="762.21" y="776.77" width="86.17" height="13.83" transform="translate(-152.7 1370.96) rotate(-75.73)"/><rect class="cls-11" x="1139.43" y="743.58" width="86.17" height="13.83" transform="translate(163.7 1711.53) rotate(-75.73)"/><rect class="cls-11" x="1178.79" y="791.45" width="86.17" height="13.83" transform="translate(146.96 1785.75) rotate(-75.73)"/><rect class="cls-11" x="1086.24" y="904.22" width="86.17" height="13.83" transform="translate(-32.07 1781.03) rotate(-75.73)"/><rect class="cls-11" x="1139.43" y="917.74" width="86.17" height="13.83" transform="translate(-5.09 1842.77) rotate(-75.73)"/><rect class="cls-11" x="1170.08" y="978.39" width="86.17" height="13.83" transform="translate(-40.77 1918.17) rotate(-75.73)"/><rect class="cls-11" x="1076.46" y="1021.85" width="86.17" height="13.83" transform="translate(-153.44 1860.18) rotate(-75.73)"/><rect class="cls-11" x="1122.12" y="1051.64" width="86.17" height="13.83" transform="translate(-147.91 1926.88) rotate(-75.73)"/><rect class="cls-11" x="1013.29" y="938.51" width="86.17" height="13.83" transform="translate(-120.27 1736.17) rotate(-75.73)"/><rect class="cls-11" x="1059.12" y="799.4" width="86.17" height="13.83" transform="translate(49.09 1675.77) rotate(-75.73)"/><rect class="cls-11" x="1086.23" y="688.08" width="86.17" height="13.83" transform="translate(177.4 1618.15) rotate(-75.73)"/><rect class="cls-11" x="1013.28" y="771.44" width="86.17" height="13.83" transform="translate(41.65 1610.27) rotate(-75.73)"/><rect class="cls-11" x="1012.01" y="600.13" width="13.83" height="86.16" transform="translate(-185.56 609.7) rotate(-30.67)"/><rect class="cls-11" x="1073.7" y="606.2" width="13.83" height="86.16" transform="translate(-180.03 642.01) rotate(-30.67)"/><rect class="cls-11" x="1087.99" y="750.91" width="13.83" height="86.17" transform="translate(-251.98 670.98) rotate(-30.73)"/><rect class="cls-11" x="1135.16" y="722.86" width="13.83" height="86.17" transform="translate(-231.03 691.14) rotate(-30.73)"/><rect class="cls-11" x="1199.65" y="744.73" width="13.83" height="86.16" transform="translate(-233.08 725.63) rotate(-30.67)"/><rect class="cls-11" x="1164.07" y="841.66" width="13.83" height="86.16" transform="translate(-287.5 721.04) rotate(-30.67)"/><rect class="cls-11" x="1217.45" y="830.48" width="13.83" height="86.16" transform="translate(-274.33 746.7) rotate(-30.67)"/><rect class="cls-11" x="1060.45" y="827.28" width="13.83" height="86.16" transform="translate(-294.66 666.17) rotate(-30.67)"/><rect class="cls-11" x="994.69" y="695.96" width="13.83" height="86.17" transform="translate(-237 615.59) rotate(-30.73)"/><rect class="cls-11" x="935.14" y="598.08" width="13.83" height="86.17" transform="translate(-195.35 571.41) rotate(-30.73)"/><rect class="cls-11" x="942.5" y="708.6" width="13.83" height="86.17" transform="translate(-250.79 590.69) rotate(-30.73)"/><rect class="cls-11" x="859.98" y="711.94" width="13.83" height="86.16" transform="translate(-263.86 547.79) rotate(-30.67)"/><rect class="cls-11" x="921.68" y="718.02" width="13.83" height="86.16" transform="translate(-258.33 580.11) rotate(-30.67)"/><rect class="cls-11" x="935.85" y="863.26" width="13.83" height="86.16" transform="translate(-330.44 607.65) rotate(-30.67)"/><rect class="cls-11" x="983.3" y="834.78" width="13.83" height="86.17" transform="translate(-309.54 629.26) rotate(-30.73)"/><rect class="cls-11" x="1047.61" y="856.54" width="13.83" height="86.16" transform="translate(-311.38 663.72) rotate(-30.67)"/><rect class="cls-11" x="1012.05" y="953.48" width="13.83" height="86.16" transform="translate(-365.8 659.14) rotate(-30.67)"/><rect class="cls-11" x="1065.42" y="942.3" width="13.83" height="86.16" transform="translate(-352.63 684.8) rotate(-30.67)"/><rect class="cls-11" x="908.42" y="939.1" width="13.83" height="86.16" transform="translate(-372.96 604.27) rotate(-30.67)"/><rect class="cls-11" x="842.84" y="807.88" width="13.83" height="86.17" transform="translate(-315.52 553.7) rotate(-30.73)"/><rect class="cls-11" x="783.28" y="710.01" width="13.83" height="86.17" transform="translate(-273.87 509.53) rotate(-30.73)"/><rect class="cls-11" x="790.64" y="820.52" width="13.83" height="86.17" transform="translate(-329.31 528.81) rotate(-30.73)"/><rect class="cls-11" x="909.51" y="948.92" width="13.83" height="86.17" transform="translate(-270.87 1635.63) rotate(-75.73)"/><rect class="cls-11" x="957.36" y="909.56" width="13.83" height="86.17" transform="translate(-196.66 1652.35) rotate(-75.73)"/><rect class="cls-11" x="1070.13" y="1002.11" width="13.83" height="86.17" transform="translate(-201.38 1831.37) rotate(-75.73)"/><rect class="cls-11" x="1083.66" y="948.91" width="13.83" height="86.17" transform="translate(-139.63 1804.4) rotate(-75.73)"/><rect class="cls-11" x="1144.3" y="918.27" width="13.83" height="86.17" transform="translate(-64.24 1840.08) rotate(-75.73)"/><rect class="cls-11" x="1187.75" y="1011.89" width="13.83" height="86.17" transform="translate(-122.23 1952.74) rotate(-75.73)"/><rect class="cls-11" x="1217.54" y="966.23" width="13.83" height="86.17" transform="translate(-55.54 1947.2) rotate(-75.73)"/><rect class="cls-11" x="1104.41" y="1075.05" width="13.83" height="86.17" transform="translate(-246.24 1919.56) rotate(-75.73)"/><rect class="cls-11" x="965.32" y="1029.21" width="13.83" height="86.17" transform="translate(-306.62 1750.21) rotate(-75.73)"/><rect class="cls-11" x="854" y="1002.11" width="13.83" height="86.17" transform="translate(-364.23 1621.92) rotate(-75.73)"/><rect class="cls-11" x="937.34" y="1075.05" width="13.83" height="86.17" transform="translate(-372.13 1757.64) rotate(-75.73)"/><rect class="cls-11" x="968.98" y="706.19" width="13.83" height="86.17" transform="translate(9.19 1510.37) rotate(-75.73)"/><rect class="cls-11" x="1016.86" y="666.83" width="13.83" height="86.17" transform="translate(83.41 1527.11) rotate(-75.73)"/><rect class="cls-11" x="1129.61" y="759.38" width="13.83" height="86.17" transform="translate(78.68 1706.13) rotate(-75.73)"/><rect class="cls-11" x="1143.14" y="706.2" width="13.83" height="86.17" transform="translate(140.42 1679.16) rotate(-75.73)"/><rect class="cls-11" x="1203.77" y="675.55" width="13.83" height="86.17" transform="translate(215.8 1714.83) rotate(-75.73)"/><rect class="cls-11" x="1247.24" y="769.16" width="13.83" height="86.17" transform="translate(157.83 1827.49) rotate(-75.73)"/><rect class="cls-11" x="1277.02" y="723.51" width="13.83" height="86.17" transform="translate(224.52 1821.95) rotate(-75.73)"/><rect class="cls-11" x="1163.9" y="832.32" width="13.83" height="86.17" transform="translate(33.82 1794.31) rotate(-75.73)"/><rect class="cls-11" x="1024.8" y="786.49" width="13.83" height="86.17" transform="translate(-26.57 1624.97) rotate(-75.73)"/><rect class="cls-11" x="913.48" y="759.38" width="13.83" height="86.17" transform="translate(-84.18 1496.66) rotate(-75.73)"/><rect class="cls-11" x="996.82" y="832.32" width="13.83" height="86.17" transform="translate(-92.07 1632.39) rotate(-75.73)"/><rect class="cls-11" x="811.06" y="804.37" width="13.83" height="86.17" transform="translate(-204.95 1431.3) rotate(-75.73)"/><rect class="cls-11" x="858.94" y="765.01" width="13.83" height="86.17" transform="translate(-130.74 1448.05) rotate(-75.73)"/><rect class="cls-11" x="971.7" y="857.56" width="13.83" height="86.17" transform="translate(-135.46 1627.06) rotate(-75.73)"/><rect class="cls-11" x="985.23" y="804.36" width="13.83" height="86.17" transform="translate(-73.71 1600.09) rotate(-75.73)"/><rect class="cls-11" x="1045.87" y="773.72" width="13.83" height="86.17" transform="translate(1.68 1635.77) rotate(-75.73)"/><rect class="cls-11" x="1089.32" y="867.34" width="13.83" height="86.17" transform="translate(-56.31 1748.43) rotate(-75.73)"/><rect class="cls-11" x="1119.1" y="821.69" width="13.83" height="86.17" transform="translate(10.37 1742.89) rotate(-75.73)"/><rect class="cls-11" x="1005.98" y="930.51" width="13.83" height="86.17" transform="translate(-180.33 1715.25) rotate(-75.73)"/><rect class="cls-11" x="866.88" y="884.66" width="13.83" height="86.17" transform="translate(-240.71 1545.9) rotate(-75.73)"/><rect class="cls-11" x="755.57" y="857.56" width="13.83" height="86.17" transform="translate(-298.31 1417.6) rotate(-75.73)"/><rect class="cls-11" x="838.9" y="930.51" width="13.83" height="86.17" transform="translate(-306.22 1553.33) rotate(-75.73)"/><rect class="cls-11" x="924.37" y="1053.46" width="86.17" height="13.83" transform="translate(-406 643.26) rotate(-30.73)"/><rect class="cls-11" x="930.38" y="991.78" width="86.17" height="13.83" transform="translate(-373.64 637.66) rotate(-30.73)"/><rect class="cls-11" x="1075.56" y="977.5" width="86.17" height="13.83" transform="translate(-345.95 709.84) rotate(-30.73)"/><rect class="cls-11" x="1048.12" y="930.56" width="86.16" height="13.83" transform="translate(-325.56 687.72) rotate(-30.67)"/><rect class="cls-11" x="1069.33" y="865.95" width="86.16" height="13.83" transform="translate(-289.63 689.5) rotate(-30.67)"/><rect class="cls-11" x="1165.65" y="901.24" width="86.17" height="13.83" transform="translate(-294.33 745.18) rotate(-30.73)"/><rect class="cls-11" x="1154.44" y="847.9" width="86.17" height="13.83" transform="translate(-268.65 731.95) rotate(-30.73)"/><rect class="cls-11" x="1151.38" y="1004.83" width="86.17" height="13.83" transform="translate(-349.28 752.43) rotate(-30.73)"/><rect class="cls-11" x="1020.61" y="1070.77" width="86.17" height="13.83" transform="translate(-401.33 694.86) rotate(-30.73)"/><rect class="cls-11" x="922.73" y="1130.31" width="86.17" height="13.83" transform="translate(-445.5 653.21) rotate(-30.73)"/><rect class="cls-11" x="1033.25" y="1122.96" width="86.17" height="13.83" transform="translate(-426.23 708.65) rotate(-30.73)"/><rect class="cls-11" x="877.34" y="823.73" width="86.17" height="13.83" transform="translate(-295.21 586.96) rotate(-30.73)"/><rect class="cls-11" x="883.35" y="762.05" width="86.17" height="13.83" transform="translate(-262.85 581.38) rotate(-30.73)"/><rect class="cls-11" x="1028.53" y="747.76" width="86.17" height="13.83" transform="translate(-235.16 653.55) rotate(-30.73)"/><rect class="cls-11" x="1000.96" y="700.62" width="86.16" height="13.83" transform="translate(-214.87 631.5) rotate(-30.67)"/><rect class="cls-11" x="1022.17" y="636.01" width="86.16" height="13.83" transform="translate(-178.94 633.28) rotate(-30.67)"/><rect class="cls-11" x="1118.62" y="671.51" width="86.17" height="13.83" transform="translate(-183.55 688.88) rotate(-30.73)"/><rect class="cls-11" x="1107.41" y="618.17" width="86.17" height="13.83" transform="translate(-157.87 675.67) rotate(-30.73)"/><rect class="cls-11" x="1104.36" y="775.11" width="86.17" height="13.83" transform="translate(-238.49 696.14) rotate(-30.73)"/><rect class="cls-11" x="973.58" y="841.04" width="86.17" height="13.83" transform="translate(-290.54 638.58) rotate(-30.73)"/><rect class="cls-11" x="875.71" y="900.58" width="86.17" height="13.83" transform="translate(-334.71 596.92) rotate(-30.73)"/><rect class="cls-11" x="986.21" y="893.23" width="86.17" height="13.83" transform="translate(-315.44 652.36) rotate(-30.73)"/><rect class="cls-11" x="751.17" y="793.57" width="86.17" height="13.83" transform="translate(-297.51 518.26) rotate(-30.73)"/><rect class="cls-11" x="757.19" y="731.88" width="86.17" height="13.83" transform="translate(-265.15 512.67) rotate(-30.73)"/><rect class="cls-11" x="902.36" y="717.6" width="86.17" height="13.83" transform="translate(-237.47 584.85) rotate(-30.73)"/><rect class="cls-11" x="874.65" y="670.49" width="86.16" height="13.83" transform="translate(-217.17 562.86) rotate(-30.67)"/><rect class="cls-11" x="895.86" y="605.88" width="86.16" height="13.83" transform="translate(-181.24 564.64) rotate(-30.67)"/><rect class="cls-11" x="992.46" y="641.35" width="86.17" height="13.83" transform="translate(-185.85 620.18) rotate(-30.73)"/><rect class="cls-11" x="981.24" y="588" width="86.17" height="13.83" transform="translate(-160.17 606.96) rotate(-30.73)"/><rect class="cls-11" x="978.19" y="744.95" width="86.17" height="13.83" transform="translate(-240.79 627.44) rotate(-30.73)"/><rect class="cls-11" x="847.41" y="810.89" width="86.17" height="13.83" transform="translate(-292.85 569.87) rotate(-30.73)"/><rect class="cls-11" x="749.53" y="870.42" width="86.17" height="13.83" transform="translate(-337.02 528.21) rotate(-30.73)"/><rect class="cls-11" x="860.04" y="863.08" width="86.17" height="13.83" transform="translate(-317.75 583.65) rotate(-30.73)"/><rect class="cls-11" x="1118.43" y="986.6" width="86.17" height="13.83" transform="translate(-87.65 1874.3) rotate(-75.73)"/><rect class="cls-11" x="1079.06" y="938.73" width="86.17" height="13.83" transform="translate(-70.92 1800.07) rotate(-75.73)"/><rect class="cls-11" x="1171.62" y="825.97" width="86.17" height="13.83" transform="translate(108.1 1804.82) rotate(-75.73)"/><rect class="cls-11" x="1118.44" y="812.44" width="86.17" height="13.83" transform="translate(81.14 1743.07) rotate(-75.73)"/><rect class="cls-11" x="1087.79" y="751.8" width="86.17" height="13.83" transform="translate(116.82 1667.68) rotate(-75.73)"/><rect class="cls-11" x="1181.41" y="708.34" width="86.17" height="13.83" transform="translate(229.48 1725.66) rotate(-75.73)"/><rect class="cls-11" x="1135.76" y="678.55" width="86.17" height="13.83" transform="translate(223.96 1658.97) rotate(-75.73)"/><rect class="cls-11" x="1244.57" y="791.68" width="86.17" height="13.83" transform="translate(196.3 1849.68) rotate(-75.73)"/><rect class="cls-11" x="1198.73" y="930.79" width="86.17" height="13.83" transform="translate(26.95 1910.06) rotate(-75.73)"/><rect class="cls-11" x="1171.62" y="1042.11" width="86.17" height="13.83" transform="translate(-101.37 1967.67) rotate(-75.73)"/><rect class="cls-11" x="1244.57" y="958.76" width="86.17" height="13.83" transform="translate(34.38 1975.56) rotate(-75.73)"/><rect class="cls-11" x="917.25" y="1044.05" width="86.17" height="13.83" transform="translate(-294.92 1722.61) rotate(-75.73)"/><rect class="cls-11" x="877.89" y="996.18" width="86.17" height="13.83" transform="translate(-278.18 1648.4) rotate(-75.73)"/><rect class="cls-11" x="970.44" y="883.42" width="86.17" height="13.83" transform="translate(-99.17 1653.13) rotate(-75.73)"/><rect class="cls-11" x="917.25" y="869.89" width="86.17" height="13.83" transform="translate(-126.13 1591.39) rotate(-75.73)"/><rect class="cls-11" x="886.62" y="809.25" width="86.17" height="13.83" transform="translate(-90.44 1516.01) rotate(-75.73)"/><rect class="cls-11" x="980.24" y="765.79" width="86.17" height="13.83" transform="translate(22.21 1573.99) rotate(-75.73)"/><rect class="cls-11" x="934.59" y="736.01" width="86.17" height="13.83" transform="translate(16.68 1507.3) rotate(-75.73)"/><rect class="cls-11" x="1043.4" y="849.14" width="86.17" height="13.83" transform="translate(-10.97 1698.01) rotate(-75.73)"/><rect class="cls-11" x="997.54" y="988.25" width="86.17" height="13.83" transform="translate(-180.33 1758.38) rotate(-75.73)"/><rect class="cls-11" x="970.43" y="1099.56" width="86.17" height="13.83" transform="translate(-308.65 1815.98) rotate(-75.73)"/><rect class="cls-11" x="1043.38" y="1016.22" width="86.17" height="13.83" transform="translate(-172.9 1823.89) rotate(-75.73)"/><rect class="cls-11" x="777.21" y="996.16" width="86.17" height="13.83" transform="translate(-354.02 1550.81) rotate(-75.73)"/><rect class="cls-11" x="737.85" y="948.29" width="86.17" height="13.83" transform="translate(-337.29 1476.6) rotate(-75.73)"/><rect class="cls-11" x="830.4" y="835.53" width="86.17" height="13.83" transform="translate(-158.27 1481.32) rotate(-75.73)"/><rect class="cls-11" x="777.22" y="821.98" width="86.17" height="13.83" transform="translate(-185.22 1419.57) rotate(-75.73)"/><rect class="cls-11" x="746.59" y="761.35" width="86.17" height="13.83" transform="translate(-149.54 1344.2) rotate(-75.73)"/><rect class="cls-11" x="840.2" y="717.9" width="86.17" height="13.83" transform="translate(-36.88 1402.18) rotate(-75.73)"/><rect class="cls-11" x="794.55" y="688.11" width="86.17" height="13.83" transform="translate(-42.41 1335.5) rotate(-75.73)"/><rect class="cls-11" x="903.35" y="801.25" width="86.17" height="13.83" transform="translate(-70.08 1526.19) rotate(-75.73)"/><rect class="cls-11" x="857.52" y="940.35" width="86.17" height="13.83" transform="translate(-239.42 1586.59) rotate(-75.73)"/><rect class="cls-11" x="830.39" y="1051.65" width="86.17" height="13.83" transform="translate(-367.74 1644.17) rotate(-75.73)"/><rect class="cls-11" x="903.35" y="968.32" width="86.17" height="13.83" transform="translate(-232 1652.08) rotate(-75.73)"/><rect class="cls-11" x="918.78" y="915.24" width="86.17" height="13.83" transform="translate(-168.93 1627.04) rotate(-75.73)"/><rect class="cls-11" x="879.43" y="867.35" width="86.17" height="13.83" transform="translate(-152.17 1552.82) rotate(-75.73)"/><rect class="cls-11" x="971.98" y="754.6" width="86.17" height="13.83" transform="translate(26.84 1557.56) rotate(-75.73)"/><rect class="cls-11" x="918.79" y="741.07" width="86.17" height="13.83" transform="translate(-0.12 1495.8) rotate(-75.73)"/><rect class="cls-11" x="888.16" y="680.43" width="86.17" height="13.83" transform="translate(35.56 1420.42) rotate(-75.73)"/><rect class="cls-11" x="981.78" y="636.97" width="86.17" height="13.83" transform="translate(148.23 1478.42) rotate(-75.73)"/><rect class="cls-11" x="936.13" y="607.19" width="86.17" height="13.83" transform="translate(142.69 1411.73) rotate(-75.73)"/><rect class="cls-11" x="1044.94" y="720.32" width="86.17" height="13.83" transform="translate(115.03 1602.43) rotate(-75.73)"/><rect class="cls-11" x="999.09" y="859.43" width="86.17" height="13.83" transform="translate(-54.33 1662.82) rotate(-75.73)"/><rect class="cls-11" x="971.97" y="970.74" width="86.17" height="13.83" transform="translate(-182.64 1720.41) rotate(-75.73)"/><rect class="cls-11" x="1044.93" y="887.41" width="86.17" height="13.83" transform="translate(-46.9 1728.32) rotate(-75.73)"/><rect class="cls-12" x="996.94" y="729.07" width="86.17" height="13.83" transform="translate(-230.05 634.79) rotate(-30.73)"/><rect class="cls-12" x="990.91" y="790.76" width="86.17" height="13.83" transform="translate(-262.42 640.37) rotate(-30.73)"/><rect class="cls-12" x="845.72" y="805.06" width="86.17" height="13.83" transform="translate(-290.11 568.19) rotate(-30.73)"/><rect class="cls-12" x="873.77" y="852.24" width="86.17" height="13.83" transform="translate(-310.28 589.15) rotate(-30.73)"/><rect class="cls-12" x="852.56" y="916.78" width="86.17" height="13.83" transform="translate(-346.24 587.37) rotate(-30.73)"/><rect class="cls-12" x="755.63" y="881.33" width="86.17" height="13.83" transform="translate(-341.74 532.86) rotate(-30.73)"/><rect class="cls-12" x="766.84" y="934.66" width="86.17" height="13.83" transform="translate(-367.41 546.08) rotate(-30.73)"/><rect class="cls-12" x="769.88" y="777.72" width="86.17" height="13.83" transform="translate(-286.79 525.6) rotate(-30.73)"/><rect class="cls-12" x="900.67" y="711.75" width="86.17" height="13.83" transform="translate(-234.72 583.17) rotate(-30.73)"/><rect class="cls-12" x="998.56" y="652.21" width="86.17" height="13.83" transform="translate(-190.55 624.83) rotate(-30.73)"/><rect class="cls-12" x="888.04" y="659.56" width="86.17" height="13.83" transform="translate(-209.82 569.38) rotate(-30.73)"/><rect class="cls-12" x="1178.23" y="902.84" width="86.17" height="13.83" transform="translate(-293.39 751.83) rotate(-30.73)"/><rect class="cls-12" x="1172.22" y="964.53" width="86.17" height="13.83" transform="translate(-325.75 757.42) rotate(-30.73)"/><rect class="cls-12" x="1027.02" y="978.83" width="86.17" height="13.83" transform="translate(-353.45 685.23) rotate(-30.73)"/><rect class="cls-12" x="1055.08" y="1026.02" width="86.17" height="13.83" transform="translate(-373.62 706.19) rotate(-30.73)"/><rect class="cls-12" x="1033.87" y="1090.56" width="86.17" height="13.83" transform="translate(-409.58 704.42) rotate(-30.73)"/><rect class="cls-12" x="936.93" y="1055.1" width="86.17" height="13.83" transform="translate(-405.07 649.91) rotate(-30.73)"/><rect class="cls-12" x="948.15" y="1108.44" width="86.17" height="13.83" transform="translate(-430.75 663.13) rotate(-30.73)"/><rect class="cls-12" x="951.19" y="951.49" width="86.17" height="13.83" transform="translate(-350.13 642.64) rotate(-30.73)"/><rect class="cls-12" x="1081.98" y="885.53" width="86.17" height="13.83" transform="translate(-298.06 700.21) rotate(-30.73)"/><rect class="cls-12" x="1179.87" y="825.99" width="86.17" height="13.83" transform="translate(-253.89 741.87) rotate(-30.73)"/><rect class="cls-12" x="1069.35" y="833.33" width="86.17" height="13.83" transform="translate(-273.16 686.43) rotate(-30.73)"/><rect class="cls-12" x="1138.7" y="711.01" width="86.17" height="13.83" transform="translate(194.71 1686.28) rotate(-75.73)"/><rect class="cls-12" x="1178.06" y="758.87" width="86.17" height="13.83" transform="translate(177.99 1760.49) rotate(-75.73)"/><rect class="cls-12" x="1085.52" y="871.64" width="86.17" height="13.83" transform="translate(-1.03 1755.78) rotate(-75.73)"/><rect class="cls-12" x="1138.72" y="885.17" width="86.17" height="13.83" transform="translate(25.94 1817.53) rotate(-75.73)"/><rect class="cls-12" x="1169.35" y="945.8" width="86.17" height="13.83" transform="translate(-9.74 1892.91) rotate(-75.73)"/><rect class="cls-12" x="1075.75" y="989.27" width="86.17" height="13.83" transform="translate(-122.39 1834.95) rotate(-75.73)"/><rect class="cls-12" x="1121.4" y="1019.06" width="86.17" height="13.83" transform="translate(-116.87 1901.64) rotate(-75.73)"/><rect class="cls-12" x="1012.57" y="905.94" width="86.17" height="13.83" transform="translate(-89.24 1710.93) rotate(-75.73)"/><rect class="cls-12" x="1058.41" y="766.82" width="86.17" height="13.83" transform="translate(80.12 1650.52) rotate(-75.73)"/><rect class="cls-12" x="1085.51" y="655.5" width="86.17" height="13.83" transform="translate(208.43 1592.91) rotate(-75.73)"/><rect class="cls-12" x="1012.57" y="738.85" width="86.17" height="13.83" transform="translate(72.68 1585.02) rotate(-75.73)"/><rect class="cls-12" x="952.18" y="682.76" width="86.17" height="13.83" transform="translate(81.54 1484.23) rotate(-75.73)"/><rect class="cls-12" x="991.54" y="730.64" width="86.17" height="13.83" transform="translate(64.81 1558.45) rotate(-75.73)"/><rect class="cls-12" x="898.99" y="843.39" width="86.17" height="13.83" transform="translate(-114.21 1553.72) rotate(-75.73)"/><rect class="cls-12" x="952.18" y="856.94" width="86.17" height="13.83" transform="translate(-87.26 1615.48) rotate(-75.73)"/><rect class="cls-12" x="982.83" y="917.57" width="86.17" height="13.83" transform="translate(-122.92 1690.87) rotate(-75.73)"/><rect class="cls-12" x="889.21" y="961.03" width="86.17" height="13.83" transform="translate(-235.59 1632.88) rotate(-75.73)"/><rect class="cls-12" x="934.88" y="990.82" width="86.17" height="13.83" transform="translate(-230.04 1699.59) rotate(-75.73)"/><rect class="cls-12" x="826.05" y="877.7" width="86.17" height="13.83" transform="translate(-202.41 1508.88) rotate(-75.73)"/><rect class="cls-12" x="871.88" y="738.58" width="86.17" height="13.83" transform="translate(-33.06 1448.46) rotate(-75.73)"/><rect class="cls-12" x="898.99" y="627.25" width="86.17" height="13.83" transform="translate(95.26 1390.86) rotate(-75.73)"/><rect class="cls-12" x="826.03" y="710.61" width="86.17" height="13.83" transform="translate(-40.5 1382.96) rotate(-75.73)"/><rect class="cls-12" x="855.46" y="849.29" width="13.83" height="86.17" transform="translate(-334.9 565.97) rotate(-30.73)"/><rect class="cls-12" x="917.15" y="855.3" width="13.83" height="86.17" transform="translate(-329.32 598.34) rotate(-30.73)"/><rect class="cls-12" x="931.44" y="1000.49" width="13.83" height="86.17" transform="translate(-401.5 626.03) rotate(-30.73)"/><rect class="cls-12" x="978.63" y="972.44" width="13.83" height="86.17" transform="translate(-380.54 646.2) rotate(-30.73)"/><rect class="cls-12" x="1042.8" y="994.25" width="13.83" height="86.16" transform="translate(-382.29 680.53) rotate(-30.67)"/><rect class="cls-12" x="1007.71" y="1090.58" width="13.83" height="86.17" transform="translate(-436.82 677.65) rotate(-30.73)"/><rect class="cls-12" x="1061.06" y="1079.35" width="13.83" height="86.17" transform="translate(-423.6 703.33) rotate(-30.73)"/><rect class="cls-12" x="904.11" y="1076.31" width="13.83" height="86.17" transform="translate(-444.08 622.71) rotate(-30.73)"/><rect class="cls-12" x="838.16" y="945.54" width="13.83" height="86.17" transform="translate(-386.52 570.64) rotate(-30.73)"/><rect class="cls-12" x="778.61" y="847.66" width="13.83" height="86.17" transform="translate(-344.86 526.47) rotate(-30.73)"/><rect class="cls-12" x="785.96" y="958.17" width="13.83" height="86.17" transform="matrix(0.86, -0.51, 0.51, 0.86, -400.3, 545.74)"/><rect class="cls-12" x="1069.15" y="719.7" width="13.83" height="86.17" transform="matrix(0.86, -0.51, 0.51, 0.86, -238.68, 656.97)"/><rect class="cls-12" x="1130.84" y="725.71" width="13.83" height="86.17" transform="translate(-233.09 689.33) rotate(-30.73)"/><rect class="cls-12" x="1145.14" y="870.91" width="13.83" height="86.17" transform="translate(-305.28 717.03) rotate(-30.73)"/><rect class="cls-12" x="1192.31" y="842.86" width="13.83" height="86.17" transform="translate(-284.32 737.2) rotate(-30.73)"/><rect class="cls-12" x="1256.87" y="864.05" width="13.83" height="86.17" transform="translate(-286.09 773.16) rotate(-30.73)"/><rect class="cls-12" x="1221.4" y="960.99" width="13.83" height="86.17" transform="translate(-340.6 768.65) rotate(-30.73)"/><rect class="cls-12" x="1274.73" y="949.77" width="13.83" height="86.17" transform="translate(-327.38 794.33) rotate(-30.73)"/><rect class="cls-12" x="1117.8" y="946.72" width="13.83" height="86.17" transform="translate(-347.86 713.71) rotate(-30.73)"/><rect class="cls-12" x="1051.85" y="815.95" width="13.83" height="86.17" transform="translate(-290.3 661.64) rotate(-30.73)"/><rect class="cls-12" x="992.31" y="718.07" width="13.83" height="86.17" transform="translate(-248.64 617.47) rotate(-30.73)"/><rect class="cls-12" x="999.66" y="828.59" width="13.83" height="86.17" transform="translate(-304.08 636.75) rotate(-30.73)"/><rect class="cls-12" x="888.07" y="677.47" width="13.83" height="86.17" transform="translate(-242.53 558.51) rotate(-30.73)"/><rect class="cls-12" x="949.76" y="683.49" width="13.83" height="86.17" transform="translate(-236.94 590.88) rotate(-30.73)"/><rect class="cls-12" x="963.81" y="829.12" width="13.83" height="86.16" transform="translate(-309.11 617.14) rotate(-30.67)"/><rect class="cls-12" x="1011.24" y="800.62" width="13.83" height="86.17" transform="translate(-288.16 638.74) rotate(-30.73)"/><rect class="cls-12" x="1075.59" y="822.4" width="13.83" height="86.16" transform="translate(-290.05 673.21) rotate(-30.67)"/><rect class="cls-12" x="1040.31" y="918.75" width="13.83" height="86.17" transform="translate(-344.45 670.18) rotate(-30.73)"/><rect class="cls-12" x="1093.66" y="907.53" width="13.83" height="86.17" transform="translate(-331.22 695.87) rotate(-30.73)"/><rect class="cls-12" x="936.72" y="904.49" width="13.83" height="86.17" transform="translate(-351.7 615.24) rotate(-30.73)"/><rect class="cls-12" x="870.76" y="773.72" width="13.83" height="86.17" transform="translate(-294.14 563.18) rotate(-30.73)"/><rect class="cls-12" x="811.21" y="675.84" width="13.83" height="86.17" transform="translate(-252.49 519.01) rotate(-30.73)"/><rect class="cls-12" x="818.56" y="786.35" width="13.83" height="86.17" transform="translate(-307.93 538.28) rotate(-30.73)"/><rect class="cls-12" x="843.21" y="933.73" width="13.83" height="86.17" transform="translate(-306.1 1559.93) rotate(-75.73)"/><rect class="cls-12" x="891.08" y="894.36" width="13.83" height="86.17" transform="translate(-231.87 1576.66) rotate(-75.73)"/><rect class="cls-12" x="1003.84" y="986.91" width="13.83" height="86.17" transform="translate(-236.61 1755.68) rotate(-75.73)"/><rect class="cls-12" x="1017.37" y="933.72" width="13.83" height="86.17" transform="translate(-174.86 1728.71) rotate(-75.73)"/><rect class="cls-12" x="1078.01" y="903.08" width="13.83" height="86.17" transform="translate(-99.47 1764.39) rotate(-75.73)"/><rect class="cls-12" x="1121.46" y="996.7" width="13.83" height="86.17" transform="translate(-157.46 1877.05) rotate(-75.73)"/><rect class="cls-12" x="1151.25" y="951.04" width="13.83" height="86.17" transform="translate(-90.76 1871.52) rotate(-75.73)"/><rect class="cls-12" x="1038.13" y="1059.86" width="13.83" height="86.17" transform="translate(-281.46 1843.88) rotate(-75.73)"/><rect class="cls-12" x="899.03" y="1014.01" width="13.83" height="86.17" transform="translate(-341.85 1674.52) rotate(-75.73)"/><rect class="cls-12" x="787.71" y="986.92" width="13.83" height="86.17" transform="translate(-399.46 1546.22) rotate(-75.73)"/><rect class="cls-12" x="871.06" y="1059.86" width="13.83" height="86.17" transform="translate(-407.36 1681.96) rotate(-75.73)"/><rect class="cls-12" x="972.4" y="738.02" width="13.83" height="86.17" transform="translate(-19.09 1537.67) rotate(-75.73)"/><rect class="cls-12" x="1020.26" y="698.66" width="13.83" height="86.17" transform="translate(55.13 1554.4) rotate(-75.73)"/><rect class="cls-12" x="1133.02" y="791.21" width="13.83" height="86.17" transform="translate(50.4 1733.41) rotate(-75.73)"/><rect class="cls-12" x="1146.55" y="738.03" width="13.83" height="86.17" transform="translate(112.13 1706.45) rotate(-75.73)"/><rect class="cls-12" x="1207.19" y="707.39" width="13.83" height="86.17" transform="translate(187.53 1742.13) rotate(-75.73)"/><rect class="cls-12" x="1250.66" y="800.99" width="13.83" height="86.17" transform="translate(129.56 1854.79) rotate(-75.73)"/><rect class="cls-12" x="1280.43" y="755.34" width="13.83" height="86.17" transform="translate(196.24 1849.24) rotate(-75.73)"/><rect class="cls-12" x="1167.3" y="864.15" width="13.83" height="86.17" transform="translate(5.54 1821.6) rotate(-75.73)"/><rect class="cls-12" x="1028.21" y="818.32" width="13.83" height="86.17" transform="translate(-54.85 1652.26) rotate(-75.73)"/><rect class="cls-12" x="916.9" y="791.21" width="13.83" height="86.17" transform="translate(-112.45 1523.96) rotate(-75.73)"/><rect class="cls-12" x="1000.23" y="864.15" width="13.83" height="86.17" transform="translate(-120.35 1659.68) rotate(-75.73)"/><rect class="cls-12" x="904.5" y="627.49" width="13.83" height="86.17" transform="translate(36.88 1388.58) rotate(-75.73)"/><rect class="cls-12" x="952.38" y="588.13" width="13.83" height="86.17" transform="translate(111.1 1405.32) rotate(-75.73)"/><rect class="cls-12" x="1065.13" y="680.67" width="13.83" height="86.17" transform="translate(106.37 1584.32) rotate(-75.73)"/><rect class="cls-12" x="1078.67" y="627.48" width="13.83" height="86.17" transform="translate(168.11 1557.37) rotate(-75.73)"/><rect class="cls-12" x="1139.3" y="596.84" width="13.83" height="86.17" transform="translate(243.5 1593.04) rotate(-75.73)"/><rect class="cls-12" x="1182.75" y="690.45" width="13.83" height="86.17" transform="translate(185.52 1705.68) rotate(-75.73)"/><rect class="cls-12" x="1099.42" y="753.62" width="13.83" height="86.17" transform="translate(61.51 1672.52) rotate(-75.73)"/><rect class="cls-12" x="960.32" y="707.78" width="13.83" height="86.17" transform="translate(1.12 1503.17) rotate(-75.73)"/><rect class="cls-12" x="849" y="680.67" width="13.83" height="86.17" transform="translate(-56.48 1374.86) rotate(-75.73)"/><rect class="cls-12" x="932.34" y="753.62" width="13.83" height="86.17" transform="translate(-64.38 1510.6) rotate(-75.73)"/><rect class="cls-12" x="991.54" y="1059.82" width="86.17" height="13.83" transform="translate(-399.82 678.47) rotate(-30.73)"/><rect class="cls-12" x="997.55" y="998.14" width="86.17" height="13.83" transform="translate(-367.45 672.88) rotate(-30.73)"/><rect class="cls-12" x="1142.73" y="983.86" width="86.17" height="13.83" transform="translate(-339.77 745.06) rotate(-30.73)"/><rect class="cls-12" x="1115.36" y="936.9" width="86.16" height="13.83" transform="translate(-319.39 722.91) rotate(-30.67)"/><rect class="cls-12" x="1136.57" y="872.29" width="86.16" height="13.83" transform="translate(-283.46 724.69) rotate(-30.67)"/><rect class="cls-12" x="1232.84" y="907.6" width="86.17" height="13.83" transform="translate(-288.15 780.4) rotate(-30.73)"/><rect class="cls-12" x="1221.61" y="854.26" width="86.17" height="13.83" transform="translate(-262.47 767.17) rotate(-30.73)"/><rect class="cls-12" x="1218.56" y="1011.19" width="86.17" height="13.83" transform="translate(-343.09 787.65) rotate(-30.73)"/><rect class="cls-12" x="1087.78" y="1077.13" width="86.17" height="13.83" transform="translate(-395.15 730.08) rotate(-30.73)"/><rect class="cls-12" x="989.9" y="1136.68" width="86.17" height="13.83" transform="translate(-439.32 688.43) rotate(-30.73)"/><rect class="cls-12" x="1100.42" y="1129.33" width="86.17" height="13.83" transform="translate(-420.05 743.87) rotate(-30.73)"/><rect class="cls-12" x="808.65" y="958.2" width="86.17" height="13.83" transform="translate(-373.57 570.75) rotate(-30.73)"/><rect class="cls-12" x="814.68" y="896.52" width="86.17" height="13.83" transform="translate(-341.21 565.17) rotate(-30.73)"/><rect class="cls-12" x="960.36" y="882.47" width="86.16" height="13.83" transform="translate(-313.3 636.23) rotate(-30.67)"/><rect class="cls-12" x="931.81" y="835.05" width="86.17" height="13.83" transform="translate(-293.35 616.39) rotate(-30.73)"/><rect class="cls-12" x="953.03" y="770.52" width="86.17" height="13.83" transform="translate(-257.39 618.17) rotate(-30.73)"/><rect class="cls-12" x="1049.95" y="805.99" width="86.17" height="13.83" transform="translate(-261.91 672.68) rotate(-30.73)"/><rect class="cls-12" x="1038.73" y="752.65" width="86.17" height="13.83" transform="translate(-236.23 659.45) rotate(-30.73)"/><rect class="cls-12" x="1035.68" y="909.58" width="86.17" height="13.83" transform="translate(-316.85 679.93) rotate(-30.73)"/><rect class="cls-12" x="904.9" y="975.52" width="86.17" height="13.83" transform="translate(-368.9 622.36) rotate(-30.73)"/><rect class="cls-12" x="807.02" y="1035.07" width="86.17" height="13.83" transform="translate(-413.08 580.71) rotate(-30.73)"/><rect class="cls-12" x="917.54" y="1027.72" width="86.17" height="13.83" transform="translate(-393.81 636.15) rotate(-30.73)"/><rect class="cls-12" x="743.51" y="825.32" width="86.17" height="13.83" transform="translate(-314.82 518.8) rotate(-30.73)"/><rect class="cls-12" x="749.52" y="763.64" width="86.17" height="13.83" transform="translate(-282.45 513.22) rotate(-30.73)"/><rect class="cls-12" x="894.7" y="749.35" width="86.17" height="13.83" transform="translate(-254.77 585.4) rotate(-30.73)"/><rect class="cls-12" x="866.67" y="702.17" width="86.17" height="13.83" transform="translate(-234.59 564.44) rotate(-30.73)"/><rect class="cls-12" x="887.87" y="637.63" width="86.17" height="13.83" transform="translate(-198.64 566.22) rotate(-30.73)"/><rect class="cls-12" x="984.79" y="673.1" width="86.17" height="13.83" transform="translate(-203.15 620.72) rotate(-30.73)"/><rect class="cls-12" x="973.58" y="619.75" width="86.17" height="13.83" transform="translate(-177.47 607.5) rotate(-30.73)"/><rect class="cls-12" x="970.53" y="776.7" width="86.17" height="13.83" transform="translate(-258.09 627.98) rotate(-30.73)"/><rect class="cls-12" x="839.75" y="842.63" width="86.17" height="13.83" transform="translate(-310.15 570.41) rotate(-30.73)"/><rect class="cls-12" x="741.87" y="902.17" width="86.17" height="13.83" transform="translate(-354.32 528.76) rotate(-30.73)"/><rect class="cls-12" x="852.38" y="894.83" width="86.17" height="13.83" transform="translate(-335.05 584.19) rotate(-30.73)"/><rect class="cls-12" x="900.83" y="868.2" width="86.17" height="13.83" transform="translate(-314.64 605.22) rotate(-30.73)"/><rect class="cls-12" x="906.85" y="806.53" width="86.17" height="13.83" transform="translate(-282.28 599.63) rotate(-30.73)"/><rect class="cls-12" x="1052.03" y="792.24" width="86.17" height="13.83" transform="translate(-254.59 671.81) rotate(-30.73)"/><rect class="cls-12" x="1024.49" y="745.14" width="86.16" height="13.83" transform="translate(-234.28 649.73) rotate(-30.67)"/><rect class="cls-12" x="1045.21" y="680.52" width="86.17" height="13.83" transform="translate(-198.46 652.64) rotate(-30.73)"/><rect class="cls-12" x="1142.12" y="715.99" width="86.17" height="13.83" transform="translate(-202.98 707.14) rotate(-30.73)"/><rect class="cls-12" x="1130.91" y="662.64" width="86.17" height="13.83" transform="translate(-177.29 693.92) rotate(-30.73)"/><rect class="cls-12" x="1127.85" y="819.59" width="86.17" height="13.83" transform="translate(-257.92 714.39) rotate(-30.73)"/><rect class="cls-12" x="997.08" y="885.52" width="86.17" height="13.83" transform="translate(-309.97 656.83) rotate(-30.73)"/><rect class="cls-12" x="899.19" y="945.06" width="86.17" height="13.83" transform="translate(-354.14 615.17) rotate(-30.73)"/><rect class="cls-12" x="1009.7" y="937.72" width="86.17" height="13.83" transform="translate(-334.87 670.61) rotate(-30.73)"/><circle class="cls-13" cx="914.28" cy="661.79" r="55.32"/><circle class="cls-14" cx="886.88" cy="653.64" r="3.53"/><circle class="cls-14" cx="907.64" cy="673.59" r="3.53"/><circle class="cls-14" cx="924.54" cy="630.67" r="3.53"/><circle class="cls-14" cx="950.95" cy="658.26" r="3.53"/><circle class="cls-14" cx="931.6" cy="693.67" r="3.53"/><circle class="cls-14" cx="886.88" cy="680.65" r="3.53"/><circle class="cls-15" cx="897.31" cy="627.14" r="3.53"/><circle class="cls-15" cx="877.75" cy="661.79" r="3.53"/><circle class="cls-15" cx="917.81" cy="651.2" r="3.53"/><circle class="cls-15" cx="904.11" cy="693.67" r="3.53"/><circle class="cls-15" cx="931.6" cy="673.59" r="3.53"/><circle class="cls-15" cx="943.89" cy="639.96" r="3.53"/><circle class="cls-13" cx="1115.08" cy="658.26" r="55.32"/><circle class="cls-14" cx="1087.68" cy="650.11" r="3.53"/><circle class="cls-14" cx="1108.43" cy="670.06" r="3.53"/><circle class="cls-14" cx="1125.33" cy="627.14" r="3.53"/><circle class="cls-14" cx="1151.75" cy="654.73" r="3.53"/><circle class="cls-14" cx="1132.39" cy="690.14" r="3.53"/><circle class="cls-14" cx="1087.68" cy="677.12" r="3.53"/><circle class="cls-15" cx="1098.11" cy="623.61" r="3.53"/><circle class="cls-15" cx="1078.54" cy="658.26" r="3.53"/><circle class="cls-15" cx="1118.61" cy="647.67" r="3.53"/><circle class="cls-15" cx="1104.9" cy="690.14" r="3.53"/><circle class="cls-15" cx="1132.39" cy="670.06" r="3.53"/><circle class="cls-15" cx="1144.69" cy="636.43" r="3.53"/><circle class="cls-13" cx="1240.01" cy="788.67" r="55.32"/><circle class="cls-14" cx="1212.61" cy="780.52" r="3.53"/><circle class="cls-14" cx="1233.37" cy="800.47" r="3.53"/><circle class="cls-14" cx="1250.26" cy="757.54" r="3.53"/><circle class="cls-14" cx="1276.68" cy="785.14" r="3.53"/><circle class="cls-14" cx="1257.32" cy="820.55" r="3.53"/><circle class="cls-14" cx="1212.61" cy="807.53" r="3.53"/><circle class="cls-15" cx="1223.04" cy="754.01" r="3.53"/><circle class="cls-15" cx="1203.47" cy="788.67" r="3.53"/><circle class="cls-15" cx="1243.54" cy="778.08" r="3.53"/><circle class="cls-15" cx="1229.84" cy="820.55" r="3.53"/><circle class="cls-15" cx="1257.32" cy="800.47" r="3.53"/><circle class="cls-15" cx="1269.62" cy="766.84" r="3.53"/><circle class="cls-13" cx="803.71" cy="793.28" r="55.32"/><circle class="cls-14" cx="776.31" cy="785.14" r="3.53"/><circle class="cls-14" cx="797.07" cy="805.09" r="3.53"/><circle class="cls-14" cx="813.97" cy="762.16" r="3.53"/><circle class="cls-14" cx="840.38" cy="789.75" r="3.53"/><circle class="cls-14" cx="821.03" cy="825.17" r="3.53"/><circle class="cls-14" cx="776.31" cy="812.15" r="3.53"/><circle class="cls-15" cx="786.74" cy="758.63" r="3.53"/><circle class="cls-15" cx="767.18" cy="793.28" r="3.53"/><circle class="cls-15" cx="807.24" cy="782.69" r="3.53"/><circle class="cls-15" cx="793.54" cy="825.17" r="3.53"/><circle class="cls-15" cx="821.03" cy="805.09" r="3.53"/><circle class="cls-15" cx="833.32" cy="771.46" r="3.53"/><circle class="cls-13" cx="807.88" cy="935.36" r="55.32"/><circle class="cls-14" cx="780.48" cy="927.21" r="3.53"/><circle class="cls-14" cx="801.24" cy="947.17" r="3.53"/><circle class="cls-14" cx="818.14" cy="904.24" r="3.53"/><circle class="cls-14" cx="844.55" cy="931.83" r="3.53"/><circle class="cls-14" cx="825.2" cy="967.24" r="3.53"/><circle class="cls-14" cx="780.48" cy="954.22" r="3.53"/><circle class="cls-15" cx="790.91" cy="900.71" r="3.53"/><circle class="cls-15" cx="771.35" cy="935.36" r="3.53"/><circle class="cls-15" cx="811.41" cy="924.77" r="3.53"/><circle class="cls-15" cx="797.71" cy="967.24" r="3.53"/><circle class="cls-15" cx="825.2" cy="947.17" r="3.53"/><circle class="cls-15" cx="837.49" cy="913.54" r="3.53"/><circle class="cls-13" cx="935.13" cy="1069.77" r="55.32"/><circle class="cls-14" cx="907.73" cy="1061.63" r="3.53"/><circle class="cls-14" cx="928.48" cy="1081.58" r="3.53"/><circle class="cls-14" cx="945.38" cy="1038.65" r="3.53"/><circle class="cls-14" cx="971.8" cy="1066.24" r="3.53"/><circle class="cls-14" cx="952.44" cy="1101.66" r="3.53"/><circle class="cls-14" cx="907.73" cy="1088.64" r="3.53"/><circle class="cls-15" cx="918.15" cy="1035.12" r="3.53"/><circle class="cls-15" cx="898.59" cy="1069.77" r="3.53"/><circle class="cls-15" cx="938.66" cy="1059.18" r="3.53"/><circle class="cls-15" cx="924.95" cy="1101.66" r="3.53"/><circle class="cls-15" cx="952.44" cy="1081.58" r="3.53"/><circle class="cls-15" cx="964.74" cy="1047.95" r="3.53"/><circle class="cls-13" cx="1111.96" cy="1074.38" r="55.32"/><circle class="cls-14" cx="1084.56" cy="1066.24" r="3.53"/><circle class="cls-14" cx="1105.32" cy="1086.19" r="3.53"/><circle class="cls-14" cx="1122.21" cy="1043.26" r="3.53"/><circle class="cls-14" cx="1148.63" cy="1070.85" r="3.53"/><circle class="cls-14" cx="1129.27" cy="1106.27" r="3.53"/><circle class="cls-14" cx="1084.56" cy="1093.25" r="3.53"/><circle class="cls-15" cx="1094.99" cy="1039.73" r="3.53"/><circle class="cls-15" cx="1075.42" cy="1074.38" r="3.53"/><circle class="cls-15" cx="1115.49" cy="1063.79" r="3.53"/><circle class="cls-15" cx="1101.79" cy="1106.27" r="3.53"/><circle class="cls-15" cx="1129.27" cy="1086.19" r="3.53"/><circle class="cls-15" cx="1141.57" cy="1052.56" r="3.53"/><circle class="cls-13" cx="1233.37" cy="963.15" r="55.32"/><circle class="cls-14" cx="1205.97" cy="955.01" r="3.53"/><circle class="cls-14" cx="1226.72" cy="974.96" r="3.53"/><circle class="cls-14" cx="1243.62" cy="932.03" r="3.53"/><circle class="cls-14" cx="1270.04" cy="959.62" r="3.53"/><circle class="cls-14" cx="1250.68" cy="995.04" r="3.53"/><circle class="cls-14" cx="1205.97" cy="982.02" r="3.53"/><circle class="cls-15" cx="1216.39" cy="928.5" r="3.53"/><circle class="cls-15" cx="1196.83" cy="963.15" r="3.53"/><circle class="cls-15" cx="1236.9" cy="952.56" r="3.53"/><circle class="cls-15" cx="1223.19" cy="995.04" r="3.53"/><circle class="cls-15" cx="1250.68" cy="974.96" r="3.53"/><circle class="cls-15" cx="1262.98" cy="941.33" r="3.53"/><circle class="cls-13" cx="1091.21" cy="791.48" r="55.32"/><circle class="cls-14" cx="1063.81" cy="783.34" r="3.53"/><circle class="cls-14" cx="1084.56" cy="803.29" r="3.53"/><circle class="cls-14" cx="1101.46" cy="760.36" r="3.53"/><circle class="cls-14" cx="1127.88" cy="787.95" r="3.53"/><circle class="cls-14" cx="1108.52" cy="823.37" r="3.53"/><circle class="cls-14" cx="1063.81" cy="810.35" r="3.53"/><circle class="cls-15" cx="1074.24" cy="756.83" r="3.53"/><circle class="cls-15" cx="1054.67" cy="791.48" r="3.53"/><circle class="cls-15" cx="1094.74" cy="780.9" r="3.53"/><circle class="cls-15" cx="1081.03" cy="823.37" r="3.53"/><circle class="cls-15" cx="1108.52" cy="803.29" r="3.53"/><circle class="cls-15" cx="1120.82" cy="769.66" r="3.53"/><circle class="cls-13" cx="950.95" cy="791.48" r="55.32"/><circle class="cls-14" cx="923.55" cy="783.34" r="3.53"/><circle class="cls-14" cx="944.31" cy="803.29" r="3.53"/><circle class="cls-14" cx="961.21" cy="760.36" r="3.53"/><circle class="cls-14" cx="987.62" cy="787.95" r="3.53"/><circle class="cls-14" cx="968.27" cy="823.37" r="3.53"/><circle class="cls-14" cx="923.55" cy="810.35" r="3.53"/><circle class="cls-15" cx="933.98" cy="756.83" r="3.53"/><circle class="cls-15" cx="914.42" cy="791.48" r="3.53"/><circle class="cls-15" cx="954.48" cy="780.9" r="3.53"/><circle class="cls-15" cx="940.78" cy="823.37" r="3.53"/><circle class="cls-15" cx="968.27" cy="803.29" r="3.53"/><circle class="cls-15" cx="980.56" cy="769.66" r="3.53"/><circle class="cls-13" cx="945.38" cy="923.34" r="55.32"/><circle class="cls-14" cx="917.98" cy="915.19" r="3.53"/><circle class="cls-14" cx="938.73" cy="935.14" r="3.53"/><circle class="cls-14" cx="955.63" cy="892.21" r="3.53"/><circle class="cls-14" cx="982.05" cy="919.81" r="3.53"/><circle class="cls-14" cx="962.69" cy="955.22" r="3.53"/><circle class="cls-14" cx="917.98" cy="942.2" r="3.53"/><circle class="cls-15" cx="928.41" cy="888.69" r="3.53"/><circle class="cls-15" cx="908.84" cy="923.34" r="3.53"/><circle class="cls-15" cx="948.91" cy="912.75" r="3.53"/><circle class="cls-15" cx="935.21" cy="955.22" r="3.53"/><circle class="cls-15" cx="962.69" cy="935.14" r="3.53"/><circle class="cls-15" cx="974.99" cy="901.51" r="3.53"/><circle class="cls-13" cx="1083.12" cy="927.36" r="55.32"/><circle class="cls-14" cx="1055.72" cy="919.22" r="3.53"/><circle class="cls-14" cx="1076.47" cy="939.17" r="3.53"/><circle class="cls-14" cx="1093.37" cy="896.24" r="3.53"/><circle class="cls-14" cx="1119.79" cy="923.83" r="3.53"/><circle class="cls-14" cx="1100.43" cy="959.25" r="3.53"/><circle class="cls-14" cx="1055.72" cy="946.23" r="3.53"/><circle class="cls-15" cx="1066.14" cy="892.71" r="3.53"/><circle class="cls-15" cx="1046.58" cy="927.36" r="3.53"/><circle class="cls-15" cx="1086.65" cy="916.77" r="3.53"/><circle class="cls-15" cx="1072.94" cy="959.25" r="3.53"/><circle class="cls-15" cx="1100.43" cy="939.17" r="3.53"/><circle class="cls-15" cx="1112.73" cy="905.54" r="3.53"/><path class="cls-16" d="M920.6,711.6s-9.83,3.28-23.71-11.32c-2.26-2.37-12.23,31.73-15.47,30.19l-19.27-9.2c-2.58-1.23,17-30.41,14.41-30.69-25.69-2.81-22-10.51-22-10.51,8.69-18.27,28.39-21.47,46.62-12.78S929.31,693.33,920.6,711.6Z"/><path class="cls-17" d="M876.56,690.55S872,679.6,859,686.33C859,686.33,868.47,690.45,876.56,690.55Z"/><path class="cls-17" d="M911.13,710.5s-9.31-4.23-14.49-10.46c0,0,11.46-3.9,14.49,10.46"/><path class="cls-16" d="M1075.88,631.81s-6.88,7.75-26.2,2c-3.14-.93,5.26,33.6,1.69,33.88l-21.29,1.66c-2.85.22-.45-34.84-2.85-33.79-23.66,10.4-24.32,1.9-24.32,1.9-1.57-20.15,13.88-32.77,34-34.35S1074.31,611.66,1075.88,631.81Z"/><path class="cls-17" d="M1027.23,635.6s-9.39-7.17-17.37,5.15C1009.85,640.76,1020.16,639.6,1027.23,635.6Z"/><path class="cls-17" d="M1067.14,635.6s-10.18,1-17.77-1.82c0,0,8-9.11,17.77,1.82"/><path class="cls-16" d="M1214.37,739.42s-6,8.45-25.82,4.88c-3.22-.58,8.88,32.83,5.36,33.49l-21,4c-2.81.53-4.24-34.59-6.51-33.28-22.39,12.91-24,4.53-24,4.53-3.76-19.86,10.23-34.09,30.09-37.84S1210.62,719.6,1214.37,739.42Z"/><path class="cls-17" d="M1166.42,748.49s-10.11-6.1-16.71,7C1149.71,755.5,1159.83,753.19,1166.42,748.49Z"/><path class="cls-17" d="M1206.1,744.16s-10,2.1-17.87.12c0,0,6.94-9.92,17.87-.12"/><path class="cls-16" d="M1007.4,779.78s5.33-8.89,25.37-6.84c3.26.33-11.37-32.05-7.9-33l20.62-5.56c2.76-.74,6.87,34.16,9,32.68,21.34-14.59,23.56-6.35,23.56-6.35,5.26,19.52-7.6,34.77-27.11,40S1012.66,799.29,1007.4,779.78Z"/><path class="cls-17" d="M1054.52,767.07s10.55,5.31,16.13-8.26C1070.64,758.81,1060.73,761.88,1054.52,767.07Z"/><path class="cls-17" d="M1015.29,774.42s9.82-2.85,17.8-1.49c0,0-6.16,10.42-17.8,1.49"/><path class="cls-16" d="M909.81,809.46s-2.07,10.15-21.64,14.9c-3.18.77,21.39,26.44,18.44,28.47L889,864.94c-2.36,1.62-17.85-29.92-19.4-27.81C854.36,858,849.52,851,849.52,851c-11.46-16.65-4.41-35.31,12.24-46.77S898.35,792.81,909.81,809.46Z"/><path class="cls-17" d="M869.61,837.13s-11.72-1.5-12.45,13.16C857.16,850.29,865.48,844.09,869.61,837.13Z"/><path class="cls-17" d="M904.15,817.13s-8.31,6-16.29,7.33c0,0,2.34-11.88,16.29-7.33"/><path class="cls-16" d="M1171.32,924.21s-7.94-6.65-2.79-26.13c.84-3.17-33.43,6.22-33.81,2.66l-2.27-21.24c-.3-2.84,34.81-1.45,33.69-3.82-11.07-23.35-2.59-24.26-2.59-24.26,20.1-2.15,33.15,12.93,35.3,33S1191.42,922.06,1171.32,924.21Z"/><path class="cls-17" d="M1166.13,875.69s6.89-9.59-5.64-17.22C1160.49,858.47,1162,868.74,1166.13,875.69Z"/><path class="cls-17" d="M1167.26,915.6s-1.29-10.15,1.31-17.82c0,0,9.33,7.71-1.31,17.82"/><path class="cls-16" d="M1157.86,965.93s9.78-3.43,23.88,11c2.29,2.34,11.75-31.91,15-30.42l19.41,8.9c2.6,1.19-16.55,30.66-13.94,30.91,25.73,2.42,22.18,10.17,22.18,10.17-8.44,18.33-28.06,21.84-46.44,13.41S1149.44,984.3,1157.86,965.93Z"/><path class="cls-17" d="M1202.22,986.28s4.72,10.83,17.68,4C1220,990.23,1210.32,986.26,1202.22,986.28Z"/><path class="cls-17" d="M1167.35,966.86s9.38,4.08,14.64,10.23c0,0-11.4,4.08-14.64-10.23"/><path class="cls-16" d="M1004.86,885.65s8.37,6.11,4.54,25.88c-.62,3.21,32.94-8.45,33.56-4.92l3.69,21c.49,2.82-34.64,3.78-33.36,6.07,12.62,22.56,4.22,24,4.22,24-19.91,3.49-34-10.68-37.44-30.59S985,889.15,1004.86,885.65Z"/><path class="cls-17" d="M1013.3,933.72s-6.24,10,6.79,16.8C1020.08,950.52,1018,940.38,1013.3,933.72Z"/><path class="cls-17" d="M1009.49,894s2,10-.11,17.87c0,0-9.83-7.07.11-17.87"/><path class="cls-16" d="M820.63,933.76S831,933.51,840,951.53c1.46,2.93,21-26.75,23.64-24.32l15.73,14.45c2.11,1.93-25.19,24.08-22.78,25.12,23.74,10.22,18,16.5,18,16.5-13.67,14.89-33.44,12.18-48.33-1.49S807,948.6,820.63,933.76Z"/><path class="cls-17" d="M856.57,966.77s1.16,11.76,15.61,9.2C872.18,976,864.28,969.24,856.57,966.77Z"/><path class="cls-17" d="M829.37,937.6s7.67,6.77,10.78,14.25c0,0-12.1.37-10.78-14.25"/><path class="cls-16" d="M903.06,1029.88s6.14-8.35,25.9-4.44c3.21.64-8.32-33-4.78-33.58l21-3.61c2.82-.48,3.64,34.65,5.94,33.38,22.61-12.53,24-4.12,24-4.12,3.41,19.92-10.81,33.9-30.74,37.32S906.47,1049.8,903.06,1029.88Z"/><path class="cls-17" d="M951.16,1021.6s10,6.28,16.83-6.72C968,1014.92,957.83,1017.05,951.16,1021.6Z"/><path class="cls-17" d="M911.41,1025.29s10-1.92,17.87.18c0,0-7.11,9.8-17.87-.18"/><path class="cls-16" d="M1093.3,1058.38s8.09,6.47,3.39,26.06c-.76,3.18,33.28-7,33.75-3.43l2.76,21.18c.37,2.84-34.77,2.25-33.59,4.59,11.61,23.09,3.15,24.19,3.15,24.19-20,2.61-33.44-12.17-36-32.21S1073.26,1061,1093.3,1058.38Z"/><path class="cls-17" d="M1099.6,1106.77s-6.67,9.75,6,17.08C1105.64,1123.86,1104,1113.6,1099.6,1106.77Z"/><path class="cls-17" d="M1097.55,1066.91s1.52,10.12-.9,17.84c0,0-9.51-7.5.9-17.84"/><text class="cls-18" transform="translate(719.42 472.9)">Mel<tspan class="cls-19" x="184.9" y="0"></tspan><tspan x="219.57" y="0">s Pizza!</tspan></text></svg>